<svg xmlns="http://www.w3.org/2000/svg" xmlns:svg="http://www.w3.org/2000/svg" width="640" height="480" id="svgcontent" overflow="visible" x="640" y="480" viewBox="0 0 640 480"><!-- Created with SVG-edit - https://github.com/SVG-Edit/svgedit--><g class="layer" style="pointer-events:all"><title style="pointer-events:inherit">Layer 1</title><rect fill="#F8CBAD" height="480" id="svg_1" stroke="#000000" stroke-width="0" width="641" x="1" y="1" style="pointer-events:inherit"></rect><path d="M258.91016,239.17589C258.91016,234.94981 267.36231,141.97616 258.91016,108.16755C250.45801,74.35895 198.33641,77.17633 199.7451,77.17633C201.1538,77.17633 160.30173,72.95026 144.80612,99.7154C129.31052,126.48055 147.62351,241.99327 147.62351,241.99327C147.62351,241.99327 221.81461,242.46283 258.91016,239.17589z" fill="#ffffff" id="svg_2" stroke="#000000" stroke-width="2" style="pointer-events:inherit"></path><path d="M 483.28647 239.33756 C 483.28647 235.11148 491.73862 142.13782 483.28647 108.32922 C 474.83432 74.52062 422.71272 77.338 424.12142 77.338 C 425.53011 77.338 384.67805 73.11193 369.18244 99.87707 C 353.68683 126.64221 371.99982 242.15494 371.99982 242.15494 C 371.99982 242.15494 446.19092 242.6245 483.28647 239.33755 L 483.28647 239.33756 z" fill="#ffffff" id="svg_5" stroke="#000000" stroke-width="2" transform="rotate(2.72631 425 159.636)" style="pointer-events:inherit"></path><ellipse cx="209" cy="208.136364" fill="#000000" id="svg_6" rx="32" ry="32" stroke="#000000" stroke-width="2" style="pointer-events:inherit"></ellipse><ellipse cx="181" cy="169.636364" fill="#ffffff" id="svg_7" opacity="0.5" rx="0" ry="0" stroke="#000000" stroke-width="2" style="pointer-events:inherit"></ellipse><ellipse cx="424" cy="208.136356" fill="#000000" id="svg_8" rx="32" ry="32" stroke="#000000" stroke-width="2" style="pointer-events:inherit"></ellipse></g></svg>