<svg width="4400" height="2475" xmlns="http://www.w3.org/2000/svg" xmlns:xlink="http://www.w3.org/1999/xlink" overflow="hidden"><defs><clipPath id="clip0"><rect x="0" y="0" width="4400" height="2475"/></clipPath></defs><g clip-path="url(#clip0)"><rect x="0" y="0" width="4400" height="2475" fill="#F8CBAD"/><path d="M451 638.502C451 574.16 503.16 522 567.502 522L1879.5 522C1943.84 522 1996 574.16 1996 638.502L1996 1104.5C1996 1168.84 1943.84 1221 1879.5 1221L567.502 1221C503.16 1221 451 1168.84 451 1104.5Z" fill="#FFFFFF" fill-rule="evenodd"/><text font-family="Calibri,Calibri_MSFontService,sans-serif" font-weight="400" font-size="220" transform="matrix(1 0 0 1 882.248 807)">Выдать <tspan font-size="220" x="-124.162" y="282">лекарства</tspan></text><path d="M2454 1574.34C2454 1510.08 2506.08 1458 2570.34 1458L3881.66 1458C3945.92 1458 3998 1510.08 3998 1574.34L3998 2039.66C3998 2103.92 3945.92 2156 3881.66 2156L2570.34 2156C2506.08 2156 2454 2103.92 2454 2039.66Z" fill="#FFFFFF" fill-rule="evenodd"/><text font-family="Calibri,Calibri_MSFontService,sans-serif" font-weight="400" font-size="220" transform="matrix(1 0 0 1 2884.82 1743)">Выдать  <tspan font-size="220" x="-359.196" y="282">документацию</tspan></text><path d="M451 1574.34C451 1510.08 503.085 1458 567.335 1458L1935.66 1458C1999.91 1458 2052 1510.08 2052 1574.34L2052 2039.66C2052 2103.92 1999.91 2156 1935.66 2156L567.335 2156C503.085 2156 451 2103.92 451 2039.66Z" fill="#FFFFFF" fill-rule="evenodd"/><text font-family="Calibri,Calibri_MSFontService,sans-serif" font-weight="400" font-size="202" transform="matrix(1 0 0 1 939.375 1618)">Выдать <tspan font-size="202" x="-419.444" y="259">завтрак/обед/уж</tspan><tspan font-size="202" x="203.935" y="518">ин</tspan></text><path d="M2454 638.503C2454 574.16 2506.16 522 2570.5 522L3881.5 522C3945.84 522 3998 574.16 3998 638.503L3998 1104.5C3998 1168.84 3945.84 1221 3881.5 1221L2570.5 1221C2506.16 1221 2454 1168.84 2454 1104.5Z" fill="#FFFFFF" fill-rule="evenodd"/><text font-family="Calibri,Calibri_MSFontService,sans-serif" font-weight="400" font-size="220" transform="matrix(1 0 0 1 2554.54 948)">Вызвать врача</text></g></svg>