<svg width="4400" height="2475" xmlns="http://www.w3.org/2000/svg" xmlns:xlink="http://www.w3.org/1999/xlink" overflow="hidden"><defs><clipPath id="clip0"><rect x="0" y="0" width="4400" height="2475"/></clipPath></defs><g clip-path="url(#clip0)"><rect x="0" y="0" width="4400" height="2475" fill="#F8CBAD"/><path d="M1103 278.334C1103 214.085 1155.08 162 1219.33 162L3180.67 162C3244.92 162 3297 214.085 3297 278.334L3297 743.666C3297 807.915 3244.92 860 3180.67 860L1219.33 860C1155.08 860 1103 807.915 1103 743.666Z" fill="#FFFFFF" fill-rule="evenodd"/><text font-family="Calibri,Calibri_MSFontService,sans-serif" font-weight="400" font-size="220" transform="matrix(1 0 0 1 1361.54 588)">Приложите палец</text><path d="M1814.5 1598.5C1814.5 1320.7 1987.32 1095.5 2200.5 1095.5 2413.68 1095.5 2586.5 1320.7 2586.5 1598.5 2586.5 1876.3 2413.68 2101.5 2200.5 2101.5 1987.32 2101.5 1814.5 1876.3 1814.5 1598.5Z" stroke="#000000" stroke-width="4.58333" stroke-miterlimit="8" fill="#FFFFFF" fill-rule="evenodd"/></g></svg>