<svg width="4400" height="2475" xmlns="http://www.w3.org/2000/svg" xmlns:xlink="http://www.w3.org/1999/xlink" overflow="hidden"><defs><clipPath id="clip0"><rect x="0" y="0" width="4400" height="2475"/></clipPath></defs><g clip-path="url(#clip0)"><rect x="0" y="0" width="4400" height="2475" fill="#F8CBAD"/><path d="M451 602.669C451 534.369 506.369 479 574.67 479L1953.33 479C2021.63 479 2077 534.369 2077 602.669L2077 1097.33C2077 1165.63 2021.63 1221 1953.33 1221L574.67 1221C506.369 1221 451 1165.63 451 1097.33Z" fill="#FFFFFF" fill-rule="evenodd"/><text font-family="Calibri,Calibri_MSFontService,sans-serif" font-weight="400" font-size="220" transform="matrix(1 0 0 1 777 644)">Заполнить <tspan font-size="220" x="-166.123" y="282">медицинскую </tspan><tspan font-size="220" x="234.46" y="565">карту</tspan></text><path d="M2337 605.503C2337 535.637 2393.64 479 2463.5 479L3861.5 479C3931.36 479 3988 535.637 3988 605.503L3988 1111.5C3988 1181.36 3931.36 1238 3861.5 1238L2463.5 1238C2393.64 1238 2337 1181.36 2337 1111.5Z" fill="#FFFFFF" fill-rule="evenodd"/><text font-family="Calibri,Calibri_MSFontService,sans-serif" font-weight="400" font-size="220" transform="matrix(1 0 0 1 2766.35 794)">Выбрать <tspan font-size="220" x="-41.5708" y="282">пациента</tspan></text></g></svg>