<svg width="4400" height="2475" xmlns="http://www.w3.org/2000/svg" xmlns:xlink="http://www.w3.org/1999/xlink" overflow="hidden"><defs><clipPath id="clip0"><rect x="0" y="0" width="4400" height="2475"/></clipPath></defs><g clip-path="url(#clip0)"><rect x="0" y="0" width="4400" height="2475" fill="#F8CBAD"/><path d="M1191.5 821.5C1191.5 645.874 1287.09 503.5 1405 503.5 1522.91 503.5 1618.5 645.874 1618.5 821.5 1618.5 997.127 1522.91 1139.5 1405 1139.5 1287.09 1139.5 1191.5 997.127 1191.5 821.5Z" stroke="#000000" stroke-width="4.58333" stroke-miterlimit="8" fill="#FFFFFF" fill-rule="evenodd"/><path d="M2393.5 821.5C2393.5 645.874 2489.09 503.5 2607 503.5 2724.91 503.5 2820.5 645.874 2820.5 821.5 2820.5 997.127 2724.91 1139.5 2607 1139.5 2489.09 1139.5 2393.5 997.127 2393.5 821.5Z" stroke="#000000" stroke-width="4.58333" stroke-miterlimit="8" fill="#FFFFFF" fill-rule="evenodd"/><path d="M1352.5 862C1352.5 817.541 1384.96 781.5 1425 781.5 1465.04 781.5 1497.5 817.541 1497.5 862 1497.5 906.459 1465.04 942.5 1425 942.5 1384.96 942.5 1352.5 906.459 1352.5 862Z" stroke="#000000" stroke-width="4.58333" stroke-miterlimit="8" fill-rule="evenodd"/><path d="M2534.5 862C2534.5 817.541 2566.96 781.5 2607 781.5 2647.04 781.5 2679.5 817.541 2679.5 862 2679.5 906.459 2647.04 942.5 2607 942.5 2566.96 942.5 2534.5 906.459 2534.5 862Z" stroke="#000000" stroke-width="4.58333" stroke-miterlimit="8" fill-rule="evenodd"/><path d="M2063.5 1787.5C1779.1 1787.5 1544.64 1577.19 1548.55 1529.52 1552.46 1481.86 1802.57 1501.51 2086.97 1501.51 2371.37 1501.51 2582.36 1481.86 2578.45 1529.52 2574.53 1577.19 2347.9 1787.5 2063.5 1787.5Z" stroke="#000000" stroke-width="4.58333" stroke-miterlimit="8" fill="#FFFFFF" fill-rule="evenodd"/><text font-family="Calibri,Calibri_MSFontService,sans-serif" font-weight="400" font-size="83" transform="matrix(1 0 0 1 79.8799 2399)">Речь робота: Выберите пациента</text></g></svg>