<svg width="4400" height="2475" xmlns="http://www.w3.org/2000/svg" xmlns:xlink="http://www.w3.org/1999/xlink" overflow="hidden"><defs><clipPath id="clip0"><rect x="0" y="0" width="4400" height="2475"/></clipPath></defs><g clip-path="url(#clip0)"><rect x="0" y="0" width="4400" height="2475" fill="#F8CBAD"/><path d="M210 220.001C210 194.043 231.043 173 257.001 173L2199 173C2224.96 173 2246 194.043 2246 220.001L2246 407.999C2246 433.957 2224.96 455 2199 455L257.001 455C231.043 455 210 433.957 210 407.999Z" fill="#FFFFFF" fill-rule="evenodd"/><text font-family="Calibri,Calibri_MSFontService,sans-serif" font-weight="400" font-size="92" transform="matrix(1 0 0 1 773.964 346)">Иванов Иван Иванович</text><path d="M210 557.002C210 531.043 231.043 510 257.001 510L2199 510C2224.96 510 2246 531.043 2246 557.002L2246 744.999C2246 770.957 2224.96 792 2199 792L257.001 792C231.043 792 210 770.957 210 744.999Z" fill="#FFFFFF" fill-rule="evenodd"/><text font-family="Calibri,Calibri_MSFontService,sans-serif" font-weight="400" font-size="92" transform="matrix(1 0 0 1 789.983 682)">Петров Пётр Петрович</text><path d="M210 919.002C210 893.043 231.043 872 257.001 872L2199 872C2224.96 872 2246 893.043 2246 919.002L2246 1107C2246 1132.96 2224.96 1154 2199 1154L257.001 1154C231.043 1154 210 1132.96 210 1107Z" fill="#FFFFFF" fill-rule="evenodd"/><text font-family="Calibri,Calibri_MSFontService,sans-serif" font-weight="400" font-size="92" transform="matrix(1 0 0 1 635.032 1045)">Васильев Василий Васильевич</text><path d="M210 1282C210 1256.04 231.043 1235 257.001 1235L2199 1235C2224.96 1235 2246 1256.04 2246 1282L2246 1470C2246 1495.96 2224.96 1517 2199 1517L257.001 1517C231.043 1517 210 1495.96 210 1470Z" fill="#FFFFFF" fill-rule="evenodd"/><text font-family="Calibri,Calibri_MSFontService,sans-serif" font-weight="400" font-size="92" transform="matrix(1 0 0 1 637.942 1408)">Алексеев Алексей Алексеевич</text><path d="M210 1620C210 1594.04 231.043 1573 257.001 1573L2199 1573C2224.96 1573 2246 1594.04 2246 1620L2246 1808C2246 1833.96 2224.96 1855 2199 1855L257.001 1855C231.043 1855 210 1833.96 210 1808Z" fill="#FFFFFF" fill-rule="evenodd"/><text font-family="Calibri,Calibri_MSFontService,sans-serif" font-weight="400" font-size="92" transform="matrix(1 0 0 1 717.795 1746)">Сергеев Сергей Сергеевич</text></g></svg>