<?xml version="1.0" encoding="UTF-8" standalone="no"?>
<!-- Creator: CorelDRAW 2020 (64-Bit) -->

<svg
   xml:space="preserve"
   width="210mm"
   height="297mm"
   version="1.1"
   style="shape-rendering:geometricPrecision; text-rendering:geometricPrecision; image-rendering:optimizeQuality; fill-rule:evenodd; clip-rule:evenodd"
   viewBox="0 0 21000 29700"
   id="svg498"
   sodipodi:docname="глаза_злой.svg"
   inkscape:version="1.1.1 (3bf5ae0d25, 2021-09-20)"
   xmlns:inkscape="http://www.inkscape.org/namespaces/inkscape"
   xmlns:sodipodi="http://sodipodi.sourceforge.net/DTD/sodipodi-0.dtd"
   xmlns="http://www.w3.org/2000/svg"
   xmlns:svg="http://www.w3.org/2000/svg"><sodipodi:namedview
   id="namedview500"
   pagecolor="#ffffff"
   bordercolor="#666666"
   borderopacity="1.0"
   inkscape:pageshadow="2"
   inkscape:pageopacity="0.0"
   inkscape:pagecheckerboard="0"
   inkscape:document-units="mm"
   showgrid="false"
   inkscape:zoom="0.46324355"
   inkscape:cx="1168.9316"
   inkscape:cy="561.25984"
   inkscape:window-width="1366"
   inkscape:window-height="706"
   inkscape:window-x="-8"
   inkscape:window-y="-8"
   inkscape:window-maximized="1"
   inkscape:current-layer="Слой_x0020_1" />
 <defs
   id="defs487">
  <style
   type="text/css"
   id="style485">
   <![CDATA[
    .str1 {stroke:black;stroke-width:52.92;stroke-miterlimit:22.9256;stroke-opacity:0.501961}
    .str0 {stroke:black;stroke-miterlimit:22.9256}
    .str2 {stroke:black;stroke-width:52.92;stroke-miterlimit:22.9256}
    .fil2 {fill:black;fill-rule:nonzero}
    .fil0 {fill:yellow;fill-rule:nonzero}
    .fil3 {fill:white;fill-rule:nonzero}
    .fil1 {fill:white;fill-rule:nonzero;fill-opacity:0.501961}
   ]]>
  </style>
 </defs>
 <g
   id="Слой_x0020_1"
   inkscape:label="Слой 1">
  <metadata
   id="CorelCorpID_0Corel-Layer" />
  
  <path
   id="svg_7"
   class="fil1 str1"
   d="m 6936.521,13559.454 c 0,0 0,0 0,0 0,0 0,0 0,0 0,0 0,0 0,0 0,0 0,0 0,0 z" />
  
  <path
   id="svg_56"
   class="fil3 str2"
   d="m 9204.721,15558.254 c 0,26.46 -2513.54,0 -3009.03,74.56 -416.12,-2782.94 -139.51,-3567.06 -79.38,-3730.63 457.01,74.56 3061.95,454.6 3061.95,481.06 185.21,502.71 132.29,2857.5 26.46,3175 z" />
  <circle
   id="svg_8"
   class="fil2 str2"
   cx="8047.7705"
   cy="14380.253"
   r="846.65997" />
  <path
   id="svg_57"
   class="fil3 str2"
   d="m 11585.971,15505.344 c 79.38,-26.46 2645.83,79.38 2883.96,0 555.63,-2566.46 238.13,-3598.33 139.51,-3603.14 -177.99,74.56 -3102.84,586.89 -3122.08,582.08 -177.99,630.19 -7.22,2888.77 98.62,3021.06 z" />
  <circle
   id="svg_48"
   class="fil2 str2"
   cx="12644.31"
   cy="14300.884"
   r="846.65997" />
 </g>
</svg>
