<?xml version="1.0" encoding="UTF-8" standalone="no"?>
<!-- Creator: CorelDRAW 2020 (64-Bit) -->

<svg
   xml:space="preserve"
   width="210mm"
   height="297mm"
   version="1.1"
   style="shape-rendering:geometricPrecision; text-rendering:geometricPrecision; image-rendering:optimizeQuality; fill-rule:evenodd; clip-rule:evenodd"
   viewBox="0 0 21000 29700"
   id="svg2217"
   sodipodi:docname="глаза_нейтральный4.svg"
   inkscape:version="1.1.1 (3bf5ae0d25, 2021-09-20)"
   xmlns:inkscape="http://www.inkscape.org/namespaces/inkscape"
   xmlns:sodipodi="http://sodipodi.sourceforge.net/DTD/sodipodi-0.dtd"
   xmlns="http://www.w3.org/2000/svg"
   xmlns:svg="http://www.w3.org/2000/svg"><sodipodi:namedview
   id="namedview2219"
   pagecolor="#ffffff"
   bordercolor="#666666"
   borderopacity="1.0"
   inkscape:pageshadow="2"
   inkscape:pageopacity="0.0"
   inkscape:pagecheckerboard="0"
   inkscape:document-units="mm"
   showgrid="false"
   inkscape:zoom="0.46324355"
   inkscape:cx="1168.9316"
   inkscape:cy="561.25984"
   inkscape:window-width="1366"
   inkscape:window-height="706"
   inkscape:window-x="-8"
   inkscape:window-y="-8"
   inkscape:window-maximized="1"
   inkscape:current-layer="Слой_x0020_1" />
 <defs
   id="defs2206">
  <style
   type="text/css"
   id="style2204">
   <![CDATA[
    .str2 {stroke:black;stroke-width:52.92;stroke-miterlimit:22.9256;stroke-opacity:0.501961}
    .str0 {stroke:black;stroke-miterlimit:22.9256}
    .str1 {stroke:black;stroke-width:52.92;stroke-miterlimit:22.9256}
    .fil3 {fill:black;fill-rule:nonzero}
    .fil0 {fill:yellow;fill-rule:nonzero}
    .fil1 {fill:white;fill-rule:nonzero}
    .fil2 {fill:white;fill-rule:nonzero;fill-opacity:0.501961}
   ]]>
  </style>
 </defs>
 <g
   id="Слой_x0020_1"
   inkscape:label="Слой 1">
  <metadata
   id="CorelCorpID_0Corel-Layer" />
  
  <path
   id="svg_5"
   class="fil1 str1"
   d="M9474.57 15007.02c-5.66,-111.67 93.25,-2579.76 -175.34,-3461.82 -268.59,-882.06 -1642.11,-737.86 -1604.88,-739.74 37.22,-1.89 -1047.93,-58.88 -1421.57,669.11 -373.64,727.99 264.87,3755.85 264.87,3755.85 0,0 1961.09,-86.89 2936.92,-223.39l0 -0.01z" />
  <path
   id="svg_7"
   class="fil2 str2"
   d="M6822.29 12988.3c0,0 0,0 0,0 0,0 0,0 0,0 0,0 0,0 0,0 0,0 0,0 0,0z" />
  
  <circle
   id="svg_8"
   class="fil3 str1"
   cx="8118.75"
   cy="14047.23"
   r="846.66" />
  <path
   id="svg_47"
   class="fil1 str1"
   d="M14264.97 15077.01c8.12,-111.52 409.89,-2548.7 251.85,-3457.1 -158.05,-908.4 -1538.87,-934.25 -1501.69,-931.55 37.17,2.71 -1032.72,-187.34 -1493.08,489.16 -460.36,676.5 -199.16,3759.9 -199.16,3759.9 0,0 1956.88,155.01 2942.09,139.59l-0.01 0z" />
  <circle
   id="svg_48"
   class="fil3 str1"
   cx="12741.74"
   cy="14047.23"
   r="846.66" />
 </g>
</svg>
