<?xml version="1.0" encoding="UTF-8" standalone="no"?>
<svg
   id="svgcontent"
   x="2713.8"
   y="1136.5"
   width="640"
   height="480"
   overflow="visible"
   version="1.1"
   viewBox="0 0 640 480"
   sodipodi:docname="грустный2_злой1.svg"
   inkscape:version="1.2 (dc2aedaf03, 2022-05-15)"
   xmlns:inkscape="http://www.inkscape.org/namespaces/inkscape"
   xmlns:sodipodi="http://sodipodi.sourceforge.net/DTD/sodipodi-0.dtd"
   xmlns="http://www.w3.org/2000/svg"
   xmlns:svg="http://www.w3.org/2000/svg">
  <defs
     id="defs1537" />
  <sodipodi:namedview
     id="namedview1535"
     pagecolor="#ffffff"
     bordercolor="#999999"
     borderopacity="1"
     inkscape:pageshadow="0"
     inkscape:pageopacity="0"
     inkscape:pagecheckerboard="0"
     showgrid="false"
     inkscape:zoom="2.6044095"
     inkscape:cx="449.62207"
     inkscape:cy="169.52019"
     inkscape:window-width="1920"
     inkscape:window-height="991"
     inkscape:window-x="-9"
     inkscape:window-y="-9"
     inkscape:window-maximized="1"
     inkscape:current-layer="g1530"
     inkscape:showpageshadow="0"
     inkscape:deskcolor="#d1d1d1" />
  <!-- Created with SVG-edit - https://github.com/SVG-Edit/svgedit-->
  <g
     class="layer"
     pointer-events="inherit"
     id="g1532">
    <title
       id="title1518">Layer 1</title>
    <g
       stroke="#000"
       stroke-width="2"
       id="g1530">
      <ellipse
         cx="181"
         cy="169.64"
         rx="0"
         ry="0"
         fill="#fff"
         opacity=".5"
         id="ellipse1520" />
      <path
         d="m 166.73,241.09 42.909,0.977 36.939,-1.054 32.422,-4.105 6.8724,-38.72425 2.04145,-36.40121 1.07298,-15.40465 -0.22197,-11.2659 -14.17315,3.83978 -11.64084,3.10503 -13.40386,3.62933 -12.09743,3.21574 -15.02824,3.29859 -18.859,4.33096 -23.42037,4.26702 -13.60534,3.68787 -8.09219,3.16674 2.40756,34.68695 5.875,38.75 0.003,0"
         fill="#ffffff"
         id="path1522"
         sodipodi:nodetypes="cccccccccccccccccccc"
         style="stroke:#000000">
        <animate
           attributeName="d"
           to="m 166.73,241.09 42.909,0.977 36.939,-1.054 32.422,-4.105 7.061,-64.847 0.064,-39.528 -4.249,-22.84 -5.876,-14.7848 -11.13882,6.68387 -8.82867,6.36777 -13.61752,6.21441 -15.23317,6.95693 -15.21677,5.6179 -15.29904,3.42997 -18.29613,2.12705 -19.614,1.784 -0.32588,35.5629 2.422,32.687 5.875,38.75 0.003,0"
           dur="3s"
           fill="freeze" />
      </path>
      <ellipse
         cx="233"
         cy="201.14"
         rx="32"
         ry="32"
         id="ellipse1524" />
      <path
         d="m 472.73,241.16 -44.841,0.102 -64.889,-2.27 -7.43589,-41.267 -4.19297,-36.415 -1.47352,-15.412 -0.0863,-11.264 14.37615,3.942 9.21956,3.189 13.70958,3.726 14.63657,3.303 15.08656,3.407 16.06113,4.467 20.56183,4.436 16.38339,3.786 12.73592,2.71732 -2.89804,37.17368 -6.956,36.373 0.002,0.006"
         fill="none"
         id="path1526"
         sodipodi:nodetypes="ccccccccccccccccccc"
         style="fill:#ffffff;stroke:#000000">
        <animate
           attributeName="d"
           to="m 472.73,241.16 -44.841,0.102 -64.889,-2.27 -6.284,-69.296 0.186,-41.826 2.375,-16.875 7.53077,-19.005158 9.00277,4.939267 12.23432,5.722121 14.24478,5.82919 12.44279,4.85834 10.5879,3.51602 24.21099,2.99301 31.02857,0.13478 2.63811,23.54443 -0.232,27.536 -3.282,33.718 -6.956,36.373 0.002,0.006"
           dur="3s"
           fill="freeze" />
      </path>
      <ellipse
         cx="417"
         cy="202.14"
         rx="32"
         ry="32"
         id="ellipse1528" />
    </g>
  </g>
</svg>
