<svg xmlns="http://www.w3.org/2000/svg" xmlns:svg="http://www.w3.org/2000/svg" width="640" height="480" id="svgcontent" overflow="visible" x="2713.8" y="1136.5" viewBox="0 0 640 480"><!-- Created with SVG-edit - https://github.com/SVG-Edit/svgedit--><g class="layer" style="pointer-events:all"><title style="pointer-events:inherit">Layer 1</title><rect fill="#F8CBAD" height="480" id="svg_1" stroke="#000000" stroke-width="0" width="641" x="-2" y="-1" fill-opacity="1" stroke-opacity="1" transform="matrix(1 0 0 1 0 0) rotate(-0.149162 318.5 239)"></rect><ellipse cx="181" cy="169.636364" fill="#ffffff" id="svg_7" opacity="0.5" rx="0" ry="0" stroke="#000000" stroke-width="2" style="pointer-events:inherit"></ellipse><path d="M166.72727,241.09391C166.72727,241.09391 243.72727,245.09391 279,236.91209C294.27273,129.73027 283.72727,113.09391 276,94.91209C260.27273,80.73027 248.72727,82.09391 240,82.91209C233.27273,99.73027 212.72727,122.09391 212,121.91209C193.27273,138.73027 158.72727,138.09391 158.72727,138.09391C155.72727,176.09391 164.72727,237.09391 166.72727,241.09391z" fill="#ffffff" id="svg_38" stroke="#000000" stroke-width="2" transform="rotate(-0.413659 222.46 162.259)" style="pointer-events:inherit"></path><ellipse cx="233" cy="201.136364" fill="#000000" id="svg_6" rx="32" ry="32" stroke="#000000" stroke-width="2" style="pointer-events:inherit"></ellipse><path d="M472.72727,241.155C472.72727,241.155 389.72727,242.14887 363,238.98655C360.27273,216.94061 348.72727,122.89623 363.72727,99.031C370.72727,87.11676 381.72727,87.15964 391.72727,83.15351C402.72727,101.14739 410.72727,110.01262 424,117.7339C434.27273,123.53482 448.72727,127.82272 481,125.70327C485.27273,141.42455 484.72727,192.45517 472.72727,241.155z" fill="#ffffff" id="svg_42" stroke="#000000" stroke-width="2" style="pointer-events:inherit"></path><ellipse cx="417" cy="202.136356" fill="#000000" id="svg_8" rx="32" ry="32" stroke="#000000" stroke-width="2" style="pointer-events:inherit"></ellipse></g></svg>