<svg xmlns="http://www.w3.org/2000/svg" xmlns:svg="http://www.w3.org/2000/svg" width="640" height="480" id="svgcontent" overflow="visible" x="640" y="480" viewBox="0 0 640 480"><!-- Created with SVG-edit - https://github.com/SVG-Edit/svgedit--><defs><filter height="200%" id="svg_54_blur" width="200%" x="-50%" y="-50%"><feGaussianBlur in="SourceGraphic" stdDeviation="20"></feGaussianBlur></filter></defs><g class="layer" style="pointer-events:all"><title style="pointer-events:inherit">Layer 1</title><rect fill="#F8CBAD" height="480" id="svg_1" stroke="#000000" stroke-width="0" width="641" x="-1" y="-1" fill-opacity="1" stroke-opacity="1" transform="matrix(1 0 0 1 0 0) rotate(-0.149162 319.5 239)"></rect><ellipse cx="181" cy="169.636364" fill="#ffffff" id="svg_7" opacity="0.5" rx="0" ry="0" stroke="#000000" stroke-width="2" style="pointer-events:inherit"></ellipse><path d="M266.72727,245.18182C266.72727,246.18182 171.72727,245.18182 153,248C137.27273,142.81818 147.72727,113.18182 150,107C167.27273,109.81818 265.72727,124.18182 265.72727,125.18182C272.72727,144.18182 270.72727,233.18182 266.72727,245.18182z" fill="#ffffff" id="svg_56" stroke="#000000" stroke-width="2" style="pointer-events:inherit"></path><ellipse cx="223" cy="200.659076" fill="#000000" id="svg_8" rx="32" ry="32" stroke="#000000" stroke-width="2" style="pointer-events:inherit"></ellipse><path d="M356.72727,243.18182C359.72727,242.18182 456.72727,246.18182 465.72727,243.18182C486.72727,146.18182 474.72727,107.18182 471,107C464.27273,109.81818 353.72727,129.18182 353,129C346.27273,152.81818 352.72727,238.18182 356.72727,243.18182z" fill="#ffffff" id="svg_57" stroke="#000000" stroke-width="2" style="pointer-events:inherit"></path><ellipse cx="396.727273" cy="197.659086" fill="#000000" id="svg_48" rx="32" ry="32" stroke="#000000" stroke-width="2" style="pointer-events:inherit"></ellipse></g></svg>