<svg xmlns="http://www.w3.org/2000/svg" xmlns:svg="http://www.w3.org/2000/svg" width="640" height="480" id="svgcontent" overflow="visible" x="640" y="480" viewBox="0 0 640 480"><!-- Created with SVG-edit - https://github.com/SVG-Edit/svgedit--><g class="layer" style="pointer-events:all"><title style="pointer-events:inherit">Layer 1</title><rect fill="#F8CBAD" height="480" id="svg_1" stroke="#000000" stroke-width="0" width="641" x="1" y="1" style="pointer-events:inherit" fill-opacity="1" stroke-opacity="1" transform="matrix(1 0 0 1 0 0)"></rect><path d="M256.91016,242.17589C256.91016,237.94981 265.36231,144.97616 256.91016,111.16755C248.45801,77.35895 196.33641,80.17633 197.7451,80.17633C199.1538,80.17633 158.30173,75.95026 142.80612,102.7154C127.31052,129.48055 145.62351,244.99327 145.62351,244.99327C145.62351,244.99327 219.81461,245.46283 256.91016,242.17589z" fill="#ffffff" id="svg_2" stroke="#000000" stroke-width="2" style="pointer-events:inherit" transform="matrix(1 0 0 1 0 0)"></path><path d="M 483.28647 239.33756 C 483.28647 235.11148 491.73862 142.13782 483.28647 108.32922 C 474.83432 74.52062 422.71272 77.338 424.12142 77.338 C 425.53011 77.338 384.67805 73.11193 369.18244 99.87707 C 353.68683 126.64221 371.99982 242.15494 371.99982 242.15494 C 371.99982 242.15494 446.19092 242.6245 483.28647 239.33755 L 483.28647 239.33756 z" fill="#ffffff" id="svg_5" stroke="#000000" stroke-width="2" transform="matrix(1 0 0 1 0 0) rotate(2.72631 425 159.636)" style="pointer-events:inherit"></path><ellipse cx="189" cy="120.136356" fill="#000000" id="svg_6" rx="32" ry="32" stroke="#000000" stroke-width="2" style="pointer-events:inherit" transform="matrix(1 0 0 1 0 0)"></ellipse><ellipse cx="181" cy="169.636364" fill="#ffffff" id="svg_7" opacity="0.5" rx="0" ry="0" stroke="#000000" stroke-width="2" style="pointer-events:inherit" transform="matrix(1 0 0 1 0 0)"></ellipse><ellipse cx="412" cy="121.136364" fill="#000000" id="svg_8" rx="32" ry="32" stroke="#000000" stroke-width="2" transform="matrix(1 0 0 1 0 0)"></ellipse></g></svg>