<?xml version="1.0" encoding="UTF-8"?>
<!-- Created with Inkscape (http://www.inkscape.org/) -->
<svg width="210mm" height="297mm" version="1.1" viewBox="0 0 210 297" xmlns="http://www.w3.org/2000/svg" xmlns:xlink="http://www.w3.org/1999/xlink">
 <defs>
  <linearGradient id="linearGradient1268" x1="67.216" x2="66.869" y1="172.37" y2="218.38" gradientTransform="matrix(.79987 0 0 .8314 48.522 75.095)" gradientUnits="userSpaceOnUse">
   <stop stop-color="#ef853d" offset="0"/>
   <stop stop-color="#d86212" stop-opacity="0" offset="1"/>
  </linearGradient>
 </defs>
 <path d="m96.757 76.674c-5.455 0.71625-10.752 1.1524-16.11 2.6016-13.592 3.6767-26.023 11.281-35.614 21.578-6.2252 6.6828-11.222 14.651-14.611 23.122-13.465 33.662-0.89393 73.561 30.135 92.788 7.275 4.5079 15.333 7.8198 23.691 9.6659 8.6334 1.9068 17.585 2.3158 26.344 1.1641 36.105-4.7475 64.356-35.593 65.948-71.967 1.5621-35.675-23.058-68.192-57.609-76.83-6.9326-1.7331-15.024-3.0621-22.175-2.1231m1.1372 1.4899c6.6864-0.78893 14.188 0.62709 20.659 2.2442 32.09 8.0205 55.031 36.819 56.472 69.722 1.6354 37.35-28.241 71.979-65.38 75.969-15.551 1.6709-30.92-1.2765-44.729-8.7454-23.81-12.878-39.658-40.02-38.467-67.224 0.4574-10.446 3.0873-20.715 7.6158-30.135 3.8544-8.018 9.1674-15.515 15.689-21.589 9.8001-9.1288 22.025-15.479 35.063-18.467 4.3409-0.99476 8.6859-1.2569 13.077-1.7751m2.4639 6.3356c-6.3382 0.15976-5.9226 10.029 0.37905 9.8995 6.5495-0.13435 6.1792-10.065-0.37905-9.8995m-54.015 20.334c1.0733 2.1818 4.6757 1.6246 6.6335 1.2001 5.7404-1.245 11.979-5.6982 16.489-9.3134 1.3779-1.1044 3.041-4.1211 4.7382-4.3955 0 4.2138 1.0344 8.6114 5.4963 10.217 1.2228 0.44008 3.742-0.0951 4.6669 0.59114 0.57085 0.4234-0.1044 1.2082-0.22629 1.7002-0.18878 0.76171 0.02029 1.5934 0.37394 2.2743 2.5226 4.8578 7.7075 5.028 12.243 3.7906l-0.18953-7.9602c-2.9494 0.60839-9.4673 0.0964-8.2788-4.7382 0.38702-1.5746 2.4076-2.5505 3.1774-3.9801 1.8541-3.4426-0.7693-7.8166-4.1855-8.9024-5.7469-1.8265-11.051 0.79168-15.731 3.9115-4.4196 2.9464-8.6277 6.1904-13.077 9.0953-3.8965 2.5438-8.1497 4.1861-12.13 6.5091m58.375-1.8953-0.18953 7.9602c4.5337 1.2371 9.7235 1.061 12.243-3.7906 0.35368-0.68096 0.56271-1.5126 0.37394-2.2743-0.12185-0.4922-0.79715-1.2767-0.2263-1.7002 0.94897-0.70467 3.4326-0.1469 4.667-0.59114 4.4717-1.6097 5.4963-5.9989 5.4963-10.217 1.716 0.27688 3.3501 3.2828 4.7382 4.3955 4.5102 3.6152 10.748 8.0684 16.489 9.3134 1.9578 0.42456 5.5602 0.98176 6.6335-1.2001-3.7794-2.2059-7.8603-3.7142-11.561-6.1301-4.641-3.0296-9.0365-6.4014-13.646-9.4744-4.6804-3.1202-9.9818-5.7387-15.731-3.9115-3.4962 1.1112-5.9667 5.4319-4.144 8.9024 0.75355 1.4349 2.7518 2.4171 3.1359 3.9801 1.1859 4.8242-5.327 5.3472-8.2788 4.7382m-3.9801-10.234c0.64308-2.2492 2.2586-2.4423 1.5106-5.1164-0.0972-0.34731-0.18215-0.84958 0.25624-1.0031 1.3125-0.45946 1.8414 1.6609 1.8306 2.5184-0.0271 2.1635-1.4812 3.5559-3.5974 3.601m-3.222 3.0324 0.75811 36.01h4.7382l0.75811-36.01h-6.2544m-42.265 12.698c5.1705 1.8845 10.441-2.0657 14.404-4.9564 1.1184-0.8159 3.6571-2.1354 3.9886-3.5726 0.21189-0.91903-0.80606-2.7137-1.1457-3.6008-1.7279 0.58261-3.1647 2.3054-4.5487 3.4583-2.5471 2.1216-5.2391 4.1685-8.1497 5.7706-1.2492 0.6878-4.109 1.495-4.5487 2.9009m73.537-12.13c-0.33963 0.88718-1.3576 2.6818-1.1457 3.6008 0.33149 1.4372 2.8702 2.7567 3.9886 3.5726 3.9558 2.8856 9.2366 6.8397 14.404 4.9564-0.44388-1.4198-3.2987-2.1839-4.5487-2.8962-2.8966-1.6504-5.5914-3.6442-8.1497-5.7753-1.3839-1.1529-2.8208-2.8757-4.5487-3.4583m-54.395 4.9277-7.3916 6.3788-4.3591 3.0976c4.5943 0.58071 7.6694-1.2456 11.182-4.0559 1.1847-0.94784 2.7574-1.9372 3.4115-3.3357l-2.8429-2.0848m52.31 0-2.6534 2.0848c0.60404 1.2916 1.9703 2.1212 3.0325 3.0323 3.4994 3.0019 6.874 4.9516 11.561 4.3593l-4.3591-3.0976-7.5811-6.3788m-55.532 10.614c3.8984 0.92813 10.179-3.2047 10.803-7.202-0.99636-9e-3 -2.4606-0.66259-3.3785-0.3929-0.77365 0.22724-1.3906 1.3547-1.9311 1.9091-1.4829 1.5208-4.9014 3.6674-5.4935 5.6858m48.14-7.202c0.60118 3.9933 6.913 8.1283 10.803 7.202-0.59626-2.0331-4.0104-4.1393-5.4889-5.6858-0.5449-0.57011-1.1406-1.6777-1.9351-1.9091-0.92071-0.26836-2.3806 0.38455-3.3791 0.3929m-18.384 50.604v0.18954c1.3612 0.71622 4.3573 3.2235 5.8754 2.9875 1.17-0.18175 2.5262-1.617 3.4115-2.346 4.4812-3.6894 6.4108-10.063 3.3257-15.235-4.884-8.1874-15.24-7.3196-22.468-11.831-3.2212-2.0107-4.8686-5.2518-4.1696-9.0168 2.6068 1.208 4.5705 2.7411 7.3887 0.66466 0.64895-0.47818 1.6131-1.2501 1.4478-2.1727-0.33679-1.8807-4.2714-1.6015-5.6146-1.5075-4.043 0.28353-7.7166 4.1617-7.1209 8.3224 1.0312 7.2013 9.3007 10.689 15.271 13.077 2.2635 0.90556 4.7333 1.7001 6.6335 3.2838 5.8251 4.8542 1.6034 10.974-3.9801 13.584m13.456-35.252c1.3866 7.4683-6.8033 11.474-13.077 12.319 1.4056 1.1559 3.8421 1.5498 5.4963 2.4224 0.62791 0.3311 1.333 0.92414 2.0848 0.82785 1.3563-0.17379 2.9128-1.495 3.9801-2.2806 3.9799-2.9301 7.2565-7.9092 4.2704-12.72-1.8162-2.9267-4.8606-3.6386-8.061-3.6002-1.0278 0.0124-3.0618 0.18667-3.483 1.3458-0.37772 1.0394 0.85212 1.9762 1.5884 2.4627 2.8462 1.8801 4.6137 0.42244 7.2013-0.77687m-13.456 56.669c1.3273 0.87827 2.7038 1.6783 3.9801 2.6335 0.50414 0.37736 1.2075 1.1819 1.8953 1.1349 1.0921-0.0748 2.3562-1.8646 3.0071-2.6312 2.8097-3.3099 4.5272-8.2941 2.9238-12.509-2.5876-6.8024-11.534-8.3715-16.537-12.782-3.6291-3.1992-3.4936-7.7847 0.18213-10.848 1.1103-0.92527 2.4633-1.5939 3.7906-2.1466-1.6157-1.0729-3.7212-1.6464-5.4963-2.4375-0.61028-0.27198-1.3887-0.86766-2.0848-0.79317-1.1082 0.11889-2.2986 1.5445-3.0317 2.2832-3.4155 3.4413-4.2267 8.3112-2.2165 12.698 2.5309 5.5236 8.5333 7.8756 13.208 11.209 2.0619 1.4702 4.4626 2.9998 5.4076 5.4696 1.5774 4.123-2.4809 6.4968-5.0286 8.7183m-0.75811-36.839c-0.57104 0.12964-1.4802 0.41562-1.6381 1.0593-0.24411 0.99558 0.12187 2.5073 0.12187 3.5605 0 3.0025-0.07533 6.1022 0.20071 9.0892 0.08171 0.88471 1.187 1.6752 2.0736 1.4677 1.6917-0.39592 1.5162-1.7821 1.5162-3.1653 0-2.6521 0.18953-5.2984 0.18953-7.9602 0-0.84776 0.409-2.3892 0.0724-3.1473-0.34116-0.76874-1.8064-1.0695-2.5363-0.90386m0.18953 23.004v-0.37904c-1.5172-0.71775-4.1778-3.4847-5.8754-3.2716-1.1275 0.14139-2.4504 1.5733-3.222 2.3268-4.1308 4.0343-4.0149 9.4008-1.2456 14.212 1.7795 3.0914 4.6865 5.3396 7.6895 7.1636 1.8123 1.1008 4.075 1.9389 5.4224 3.6403 1.4254 1.8001 0.65407 3.6836-0.62146 5.306-0.39763 0.50565-1.3506 1.1993-1.3502 1.8953 1.9e-4 0.6624 0.86538 1.2858 1.2875 1.7056 2.3467 2.3348 5.329-1.0964 6.5721-3.4113 0.47288-0.88073 0.77063-1.8574 0.92586-2.8429 1.2736-8.091-8.0483-10.457-12.612-14.8-4.3853-4.1728-1.4067-9.0164 3.0296-11.544m0.18952 0.21266c-1.5009 0.13417-1.4167 1.5575-1.3438 2.6303 0.17512 2.5721 0.08641 5.1965 0.1992 7.7706 0.04174 0.95542-0.23521 2.9635 1.3333 2.8198 1.4757-0.13514 1.0871-2.0192 1.155-3.0093 0.19332-2.8238 0.4744-5.8945 0.30174-8.7175-0.0465-0.7619-0.84777-1.5651-1.6455-1.4938m-46.624 4.336c-0.82596 2.7942-0.73993 6.2049-0.93741 9.0973-0.04656 0.68364 0.41336 2.9235-0.59095 3.1024-0.58393 0.10391-1.6402-1.5556-2.0727-1.9159-1.7414-1.4508-3.0868-1.2715-5.1172-1.755 0.0025 3.606 2.7423 6.9549 4.1368 10.235 1.1173 2.6272 1.6855 5.9199 3.1949 8.3364 0.76796 1.2295 2.0499 2.1475 3.0349 3.1933 1.7226 1.8295 3.3541 3.7919 5.0534 5.6538 1.7512 1.9194 2.5897 4.5782 4.4433 6.4576 2.3321 2.3645 6.0325 4.1274 8.7554 6.0732 2.0759 1.4834 4.069 2.9703 5.8754 4.7797 0.9755 0.97702 1.878 2.6295 3.2294 3.0923 8.0373 2.7533 17.819 2.6365 26.147 1.8034 2.7953-0.27975 5.5511-1.0727 8.3392-1.2947 0.97551-2.0916 3.36-3.2417 5.1172-4.5811 2.6303-2.0048 5.0975-4.3195 7.7877-6.226 1.8979-1.3449 4.1997-2.3066 5.9936-3.7485 1.9872-1.5974 2.8871-4.191 4.4939-6.103 2.3833-2.8359 5.5507-5.227 7.71-8.2301 1.4544-2.0228 2.1138-4.7168 3.2188-6.9322 1.1533-2.3122 2.6159-4.4948 4.047-6.6335 0.81269-1.2143 1.7941-2.2455 1.4326-3.7906l-3.4087 0.28107-2.4667 1.0456 3.601-7.3916c-1.3817-0.04-2.7827-0.75907-4.1528-0.16225-1.0475 0.45658-1.6919 1.8377-2.69 2.1775-0.57256 0.19502-1.2873-0.26174-1.8756-0.29908-1.3233-0.0839-2.5871 0.59189-3.5594 1.4537-1.44 1.2759-2.234 3.8394-3.7297 4.8411-0.67263 0.45051-2.1189-0.28637-2.9455-0.1846-1.8792 0.23161-3.312 1.6885-4.3639 3.1663-2.8458 3.9975-4.735 8.563-7.0161 12.888-1.089 2.0647-1.6601 3.8493-3.2629 5.6932-3.6274 4.1732-8.5796 5.3307-13.021 8.2852-2.5438 1.6923-5.0699 3.4367-6.6492 6.1117-0.31669 0.53618-0.89532 3.1826-1.5079 3.1826-0.73367 0-0.67226-2.4385-0.94063-2.9932-1.2192-2.5196-3.157-5.1698-5.3138-6.9632-2.1229-1.7653-4.5591-3.3588-7.0666-4.5184-1.3144-0.60781-2.863-0.76115-4.1156-1.4935-4.6034-2.6911-7.7949-6.6371-11.13-10.636-0.8269-0.99143-2.0488-1.694-2.7881-2.7412-2.0143-2.8533-0.75792-6.2571-1.0792-9.2795-0.23994-2.2576-1.8187-3.1898-2.7844-4.9474-0.37356-0.68003-0.14537-1.5223-0.31044-2.2546-0.51059-2.2643-1.9573-2.6547-3.8931-3.4115l-1.3267 6.823h-0.37912c-0.01895-2.2785 0.05474-5.6506-1.7262-7.3518-0.97722-0.93342-2.3375-1.1203-3.391-1.9351m90.531 13.014-0.0633 0.12622 0.0633-0.12622m-0.12642 0.44216c-0.0926 1.3866-1.2005 4.4912-2.4639 5.1172 0.11257-1.5651 0.86652-4.5477 2.4639-5.1172m-49.846 0.18952c-0.95275 1.0352-1.8195 2.1227-2.4047 3.4115-0.42984 0.94669-0.72777 1.9923-0.80018 3.0324-0.6245 8.958 10.575 9.4231 14.18 15.541 1.1417 1.9379 0.47401 4 0.20735 6.0649 0.7257-0.60136 1.2031-1.4095 1.5774-2.2743 2.6318-6.078-3.9081-10.024-7.4576-13.836-2.788-2.9934-3.2521-5.6665 0.38379-8.1497v-0.37904l-5.6858-3.4115m42.454 2.2743c-0.17265 1.6768-1.4283 3.5076-2.3039 4.9277-0.1973 0.31992-0.83904 1.6483-1.379 1.2933-0.60555-0.39781 0.29566-1.4781 0.49789-1.8619 0.75451-1.4317 1.3229-4.0565 3.185-4.3591m-36.389 10.235c1.5022-1.1444 1.1159-4.6514 1.1364-6.444 9e-3 -0.77212 0.10972-1.9813-0.94973-2.0759-1.121-0.10007-1.1364 1.1029-1.1341 1.8864 0.0053 1.9044-0.30286 5.155 0.94746 6.6335m-4.9277 15.541c-0.16091-1.2456-0.56555-2.5241-0.47042-3.7906 0.228-3.0353 2.838-4.7983 5.2086-6.2544-0.64837-0.53789-1.9794-1.5306-2.8429-1.5509-0.90765-0.0212-1.9294 1.3121-2.461 1.9468-2.2249 2.6578-2.225 7.3368 0.56574 9.649m4.7382 7.5811h0.37906c0.3529-4.4713 0.11208-8.9963 0.53636-13.456 0.0671-0.70409 0.46474-3.996-0.70882-3.8546-1.0223 0.12323-0.61807 3.3116-0.53163 4.0441 0.50944 4.3167 0.32503 8.9171 0.32503 13.267z" fill="#f8caaa"/>
 <path d="m97.497 212.55a84.83 45.272 0 0 0-84.753 44.019h169.55a84.83 45.272 0 0 0-84.794-44.019z" fill="url(#linearGradient1268)"/>
 <g transform="matrix(.4637 0 0 .4637 122.34 28.198)" fill="#462006">
  <g font-family="sans-serif" letter-spacing="0px" word-spacing="0px">
   <text transform="scale(.96236 1.0391)" x="153.26003" y="148.82106" font-size="54.171px" stroke-width="1.3543" style="line-height:33.8569px" xml:space="preserve"><tspan x="153.26003" y="148.82106" fill="#462006" font-family="Centaur" stroke-width="1.3543">T</tspan></text>
   <text transform="scale(.9896 1.0105)" x="158.40541" y="153.10295" font-size="54.609px" stroke-width="1.3652" style="line-height:34.1309px" xml:space="preserve"><tspan x="158.40541" y="153.10295" fill="#462006" font-family="Centaur" stroke-width="1.3652">I</tspan></text>
   <text transform="scale(.96236 1.0391)" x="135.89096" y="149.336" font-size="54.171px" stroke-width="1.3543" style="line-height:33.8569px" xml:space="preserve"><tspan x="135.89096" y="149.336" fill="#462006" font-family="Centaur" stroke-width="1.3543">V</tspan></text>
  </g>
  <path d="m165.76 120.06 0.87903 0.0525c0.10654 0.10494 0.15989 0.27103 0.15989 0.49839 0.23084 0.80455 0.59472 1.8715 1.0919 3.2007s1.03 2.6585 1.5982 3.9877c0.55046 1.3118 1.092 2.571 1.6248 3.7778l4.2617 10.048c0.31962 0.90948 0.84337 2.1775 1.5714 3.804 0.71027 1.6091 1.4206 3.1046 2.1308 4.4863 0.69251 1.3642 1.2518 2.2298 1.6779 2.5971 0.56822 0.55968 1.385 0.97081 2.4504 1.2332v0.76082c-1.7402-0.13992-3.3559-0.20993-4.8475-0.20993-1.456 0-3.2229 0.12252-5.3004 0.36738v-0.86578c1.7224-0.24486 2.8678-0.56847 3.436-0.97074 0.55046-0.41976 0.82567-0.93571 0.82567-1.5479 0-0.50721-0.43508-1.7752-1.3052-3.804l-1.9709-4.8535c-1.5981-0.27984-3.4538-0.38486-5.5668-0.3149h-2.1042c-0.35706 0-0.69348 2e-3 -1.02 6e-3v-1.4526c0.22314 2e-3 0.4433 4e-3 0.67381 4e-3l2.4504 0.0525c1.7579 0 3.3117-0.10483 4.6612-0.31471-0.14205-0.27984-0.41727-0.96207-0.82567-2.0464l-3.0099-7.6344c-0.26635-0.62964-0.51488-1.2419-0.74572-1.8365-0.2486-0.61215-0.54166-1.2854-0.87903-2.02-0.26635 0.50721-0.69241 1.4516-1.2784 2.8333-0.4666 1.0679-0.8135 1.8733-1.0468 2.4292v-10.877c0.13888-0.45882 0.2747-0.92187 0.40739-1.3898z"/>
 </g>
 <g transform="matrix(.73153 0 0 .73153 22.77 38.909)">
  <path d="m55.461 168.4c-3.0417 11.365 0.52297 25.328 2.2465 36.693-1.8641 15.913 2.6644 26.405 3.7155 36.362l0.21591 5.947c0 2.8081-0.80965 6.9117-0.10796 8.8023l6.635-0.31703c0.95472-1.6124 0.23617-2.4692-0.75224-3.326-1.0126-2.0317-0.72972-4.0635-1.0946-6.0952l-0.74884-3.7442c-0.09541-9.3858 1.1088-22.887-0.93604-37.255 0.74883-9.6101 0.84788-19.978 2.2465-28.83h3.1826c1.6482 8.0707 2.4301 25.624 2.3455 29.254-1.7529 14.876-0.36516 30.619-1.0351 36.831-0.49923 3.3074-0.18882 6.5608-1.4977 9.9221-0.65614 0.93491-1.0964 2.0857-0.1872 3.2905l6.1646-0.20053c0.34411-3.137-0.11148-6.2102-0.3611-9.4551l1.1233-10.297c0.16144-3.4277 5.413-19.743 2.4337-31.077 3.8473-14.416 4.3373-24.932 3.7442-32.2z" fill="#ffd5d5" stroke="#916f6f" stroke-width=".17991px"/>
  <path d="m61.25 252.64c-0.09261 1.4752-0.09635 2.8302 0.22841 3.7052 2.2118-0.10559 4.2766 0.2296 6.6353-0.31678 1.1996-1.0247 0.43191-3.2527-0.75241-3.3259-0.0104-0.0209 0.06229-0.12441 0.05216-0.14521zm8.6258 0c-0.0182 0.0484-0.03333 0.0968-0.05219 0.14521-1.0479 0.39617-1.0962 2.0854-0.18707 3.2902 2.61 0.40694 4.4134 0.0394 6.2812 0.0591 0.51058-0.98473 0.26658-2.2215 0.23617-3.2986z" fill="#ef853d"/>
  <path d="m80.198 131.85c3.7285 0.0385 5.5363 2.1665 6.2027 4.5734 0.50243 3.0464 1.1482 8.509 2.885 13.729 0.95904 4.1186 2.0142 8.1369 3.441 11.164 2.7442 3.9852 5.3751 17.175 7.1217 22.054l0.8469 9.7535-0.16974 8.5914-0.65794-0.82652c-1.0006-1.6574-0.71009-10.564-2.1297-11.904-0.82275 1.6217-0.23627 4.0746-1.1678 5.5626l-0.80035 0.20419c0.5243-1.0505-0.039-3.4383-0.0585-5.1575-0.38879-3.2766 0.78922-5.0532 1.4236-6.5033-1.8447-7.4874-6.9154-14.393-7.9528-16.719-1.6139-2.8025-2.3221-8.4524-3.9913-13.098l-5.8492-14.733z" fill="#ffd5d5" stroke="#916f6f" stroke-width=".19415px"/>
  <path d="m62.448 213.52c-2.5682-0.21584-3.5921-0.48382-4.4172-1.1561-0.19429-0.1583-0.7726-0.38347-1.2851-0.50038-0.62006-0.14143-1.0834-0.34562-1.3848-0.61026-0.27613-0.24245-0.79627-0.48537-1.3323-0.62224-1.0329-0.26373-2.0127-0.73365-2.3822-1.1425-0.40553-0.44876-1.1972-0.59551-2.6813-0.49706-1.3095 0.0869-1.3385 0.082-2.2906-0.38316-0.53038-0.25913-1.4201-0.84449-1.9771-1.3008-0.81359-0.66652-1.2141-0.88818-2.0368-1.1272-1.0597-0.3079-1.5654-0.65886-1.5654-1.0863 0-0.1361 0.52307-2.5693 1.1624-5.4071 1.2862-5.7092 4.1208-16.421 5.0862-19.22 1.2699-3.6824 3.138-8.106 4.8829-11.563 1.0139-2.0086 4.1865-6.9597 5.4676-8.5325 0.86158-1.0578 1.1035-1.8764 1.1019-3.7282-0.0014-1.5154-0.0014-1.5154-1.058-4.615-1.9977-5.8597-2.1385-6.5586-1.8395-9.1286 0.28389-2.4399 0.27038-3.1889-0.12727-7.0551-0.37976-3.6923-0.36298-3.8246 0.50413-3.9745 1.3522-0.23369 1.7759-0.25448 1.9663-0.0965 0.10974 0.0911 0.51874 0.76461 0.9089 1.4968 0.92338 1.7328 1.7736 2.9269 2.8113 3.9486 1.6049 1.5801 2.8653 1.9222 6.6853 1.8141 2.9443-0.0832 4.1737-0.30176 5.6059-0.99644 1.2377-0.60031 2.3797-1.7988 3.8638-4.0551 1.2713-1.9327 1.4749-2.1655 1.9931-2.2794 0.41965-0.0922 1.9796 0.14453 2.3139 0.35108 0.1567 0.0968 0.12648 0.50503-0.18025 2.4344-0.20268 1.2749-0.49605 3.6508-0.65192 5.2799-0.64039 6.6928-0.89255 7.9597-2.2775 11.443-1.1122 2.7973-1.4371 4.0464-1.4371 5.525 0 1.7812 0.30247 2.5856 2.2346 5.9429 3.0378 5.2784 8.1875 16.737 10.851 24.145 0.43797 1.218 0.89646 2.4083 1.0189 2.6451 0.12243 0.23673 0.22259 0.5916 0.22259 0.78859s0.1848 1.0525 0.41068 1.901c0.51529 1.9359 0.70911 2.9908 1.2453 6.7778 0.23601 1.6669 0.55439 3.6139 0.7075 4.3268 0.20688 0.96306 0.24183 1.3763 0.13606 1.6084-0.18369 0.40317-1.0775 0.90991-2.2929 1.3-0.53038 0.17022-1.0358 0.36581-1.1231 0.43464-0.10757 0.0848-0.13498 0.47246-0.085 1.202 0.0505 0.7363 0.0236 1.1079-0.0849 1.175-0.0873 0.0539-1.0674 0.31016-2.178 0.56938-1.2462 0.29088-2.1287 0.57064-2.3049 0.73076-0.63225 0.57433-0.87388 0.62067-4.7178 0.90489-1.8445 0.13637-2.587 0.24351-2.8203 0.40697-0.2415 0.16915-0.65423 0.22186-1.7372 0.22186-1.4205 0-1.4205 0-1.6977 0.46986-0.15247 0.25842-0.38285 0.51192-0.51196 0.56332-0.1291 0.0514-1.4126 0.15185-2.8522 0.22322-1.4396 0.0714-2.8034 0.19992-3.0307 0.28567-0.40288 0.15198-5.4976 0.27284-6.8192 0.16177z" fill="#ef853d" stroke-width=".13776"/>
  <g stroke="#916f6f">
   <path d="m56.674 139.55c-5.2822 4.1998-11.412 8.5393-16.389 15.743 2.2873 4.3218 2.3455 10.724 9.2593 12.986l0.49016 2.542c-0.72494 0.55819-1.2458 0.98727-2.038 0.72438-7.9181-4.896-14.463-13.855-14.163-16.182-0.13192-2.4799 12.893-14.531 15.459-18.468 2.3231-4.1164 4.0654-3.981 5.8408-4.9079l4.89 0.0122z" fill="#f4d7d7" stroke-width=".22141px"/>
   <path d="m52.222 168.11c0.77529-0.84 1.67-2.1952 2.405-3.3482-0.34003 0.0351-0.4649-0.1668-1.0201 0.10518-0.38992 0.67486-1.7768 1.4895-2.7333 2.1585l0.11313 1.4266z" fill="#ffd5d5" stroke-width=".18414px"/>
   <path d="m55.04 173.93c-2.0289-0.92902-3.6628-1.6354-6.0559-2.1129 0.03376-0.58687-0.07441-0.89467 0.10094-1.7606-0.40622-0.73155-0.08389-1.2769 0.45895-1.7752-0.05686-0.73703-0.12463-0.92119 0.55076-1.733-0.17356-0.47949 0.12683-0.83222 0.12683-0.83222 4.2582 2e-3 4.752 0.42847 7.8886 2.7094l-0.60587 0.15425c-2.0629-0.95132-3.8806-1.7498-5.4631-1.5535l0.18107 0.55454c3.1924 1.4909 4.5746 3.228 6.1116 5.0964l-0.92352-9e-3c-2.2401-1.9004-3.7919-3.1311-6.1776-3.9359 2.5724 0.70165 4.3919 2.4728 6.1776 3.9359l-1.1225 0.0286c-1.3781-0.62117-3.2523-2.2665-5.0352-2.3041l0.50378 0.12767-0.33725 0.66369-0.43478-0.11775c2.114 0.47448 3.5641 2.0051 4.608 2.6136z" fill="#ffd5d5" stroke-width=".1836px"/>
   <path d="m65.599 126.24c-0.0019 1.9508 0.67472 3.7728-0.41615 4.9101-1.1032 1.2947-4.9657 0.58774-7.6673 0.84455l8.9788 13.051 9.3723-2.8838 6.0666-10.019c-2.0936-0.5397-7.61 0.4553-9.0004-0.93326-0.98864-1.1534-0.77833-2.9935-0.40612-4.6769z" fill="#f4d7d7" stroke-width=".26458px"/>
  </g>
  <path d="m57.907 131.47c-0.28946-0.0119-0.77234 0.0508-1.6175 0.19689-0.86712 0.14985-0.88361 0.28212-0.50385 3.9744 0.39765 3.8662 0.41101 4.6155 0.12712 7.0554-0.29904 2.57-0.15797 3.269 1.8397 9.1286 1.0566 3.0996 1.0564 3.0993 1.0578 4.6147 0.0012 1.3257-0.12724 2.1206-0.51366 2.8541h20.142c-0.44685-1.0411-0.54725-1.7423-0.54725-2.7616 0-1.4786 0.32443-2.7274 1.4366-5.5247 1.385-3.4834 1.6375-4.7504 2.2779-11.443 0.15587-1.629 0.44896-4.0049 0.65164-5.2798 0.30673-1.9293 0.33705-2.3377 0.18035-2.4345-0.33421-0.20655-1.8944-0.44308-2.3141-0.35088-0.51819 0.11381-0.72137 0.34627-1.9926 2.2789-1.4841 2.2563-2.6261 3.4547-3.8638 4.055-1.4323 0.69468-2.6621 0.91364-5.6064 0.99684-3.8201 0.10801-5.08-0.23424-6.6849-1.8144-1.0378-1.0218-1.8883-2.2158-2.8117-3.9486-0.39016-0.73215-0.79925-1.4054-0.90899-1.4966-0.0714-0.0592-0.17514-0.0936-0.34882-0.10077z" fill="#ef853d" stroke-width=".13776"/>
  <path d="m56.937 105.57c-0.2476 5.3086-0.72678 9.9846 1.5373 14.667 2.2452 3.9702 6.2474 6.8121 10.499 7.2613 5.491-0.0965 8.8588-4.1174 10.598-7.1708 1.9321-3.6653 2.6435-10.315 2.4054-15.065l-8.699-6.4022-8.7714-0.0995z" fill="#f4d7d7" stroke="#3a0b0b" stroke-opacity=".45455" stroke-width=".26458px"/>
  <path d="m58.077 161.97c-0.17072-0.15114-0.54598-0.26829-1.1159-0.34835-0.30704-0.0431-0.75675-0.44965-1.0643-0.96204-0.22938-0.38221-0.74916-1.5768-1.1261-2.588-0.27305-0.73253-0.29202-0.84753-0.2914-1.7669 6.42e-4 -0.8283 0.03895-1.12 0.24346-1.85 0.25959-0.92667 0.71643-1.893 1.0717-2.2667l0.21798-0.22936-0.37811-0.3579c-0.41448-0.39231-0.79483-1.0051-1.0656-1.7167-0.19296-0.50714-0.24615-1.7102-0.08724-1.9731 0.04827-0.0799 0.23806-0.21308 0.42176-0.29605 0.30636-0.13838 0.50952-0.34088 0.50952-0.50786 0-0.0367-0.24363-0.2395-0.5414-0.45076-0.61786-0.43837-0.98715-0.98951-0.98715-1.4732 0-0.30376 0.4863-1.6604 0.78156-2.1803 0.1641-0.28896 0.1641-0.28896-0.19545-1.0148-0.42044-0.84878-0.49803-1.4158-0.33385-2.4399 0.09048-0.56436 0.14089-0.68295 0.4075-0.95873 0.29598-0.30616 0.3015-0.32316 0.20298-0.62563-0.39624-1.2165-0.43005-1.399-0.38117-2.0572 0.03597-0.48438 0.11198-0.78951 0.28608-1.1484 0.1304-0.26879 0.32221-0.72554 0.42624-1.015 0.10402-0.28946 0.25511-0.61088 0.33574-0.71426 0.08063-0.10338 0.23347-0.34022 0.33965-0.5263 0.10618-0.18609 0.324-0.47367 0.48404-0.63908 0.32229-0.33311 0.33215-0.58148 0.0373-0.93982-1.0754-1.307-2.1616-2.7589-2.3051-3.0813-0.09887-0.22208-0.25325-0.72769-0.34308-1.1236-0.20079-0.88494-0.54088-1.9652-2.0847-6.6219-1.2595-2.7182-0.87358-7.7561-0.86511-8.2911 0.02295-2.763 0.17528-4.3982 0.47299-5.6707 0.07256-0.31014 0.16146-0.74997 0.19755-0.97741 0.22095-1.3922 0.66298-2.9394 1.1706-4.0976 0.60229-1.3741 2.3721-4.4634 3.209-5.6013 0.70534-0.95911 0.91856-1.1847 1.7439-1.8453 0.81131-0.64935 1.2011-0.79045 2.6973-0.97641 1.2185-0.15144 1.5202-0.14038 2.213 0.0809l0.59925 0.19138 0.57345-0.40848c0.31541-0.22467 0.87917-0.5599 1.2528-0.74494 0.37364-0.18505 0.86127-0.42878 1.0836-0.54162 0.22234-0.11285 0.85286-0.30736 1.4012-0.43225 0.85361-0.19443 1.1943-0.23169 2.3701-0.2592 1.2002-0.0281 1.4302-0.0139 1.8258 0.11246 0.70366 0.2248 1.9504 0.70901 2.2787 0.885 0.16326 0.0875 0.87005 0.41877 1.5706 0.73612 1.5447 0.69974 3.8479 2.0982 4.6308 2.8118 0.76262 0.6951 1.1908 1.2481 2.2526 2.9093 1.6077 2.5152 1.903 3.059 2.5106 4.6239 2.2535 6.2957 0.61069 14.663-0.82402 18.285-0.83806 2.1287-1.3458 3.488-1.5778 4.2242-0.10185 0.3232-0.3891 0.99365-0.63832 1.4899-0.24923 0.49622-0.52855 1.1391-0.62073 1.4285-0.59117 1.8566-0.62453 1.9987-0.56614 2.4125 0.0564 0.39978 0.0694 0.41576 0.5822 0.71903 0.73518 0.43473 1.058 0.71961 1.3078 1.154 0.11887 0.20676 0.33227 0.52591 0.47422 0.70921 0.30482 0.39362 0.49929 1.047 0.40149 1.3489-0.0374 0.1156-0.24733 0.41885-0.4664 0.6739-0.26006 0.30276-0.47274 0.66544-0.61269 1.0448-0.11791 0.31961-0.28707 0.70727-0.37591 0.86146-0.22569 0.39168-0.20584 0.47618 0.15691 0.6681 1.399 0.74009 1.4858 1.6741 0.2706 2.911-0.37453 0.38124-0.58867 0.66435-0.58801 0.77739 6.4e-4 0.0978 0.13524 0.44847 0.29927 0.77929 0.414 0.83497 0.41356 1.2212-2e-3 1.939-0.17269 0.29815-0.38206 0.60976-0.46526 0.69247-0.33176 0.32974-0.37409 0.49122-0.1848 0.70486 0.0962 0.10855 0.31507 0.44312 0.48642 0.74349 0.26468 0.46401 0.3056 0.60071 0.27212 0.90916-0.0533 0.49135-0.69325 1.4331-1.4896 2.1921-0.37331 0.35582-0.59764 0.62931-0.56948 0.69427 0.0256 0.059 0.17853 0.16295 0.33994 0.2311 0.16142 0.0682 0.29349 0.1524 0.29349 0.18721 0 0.10304-0.36398 0.37414-0.61567 0.45857-0.12844 0.0431-0.23352 0.13473-0.23352 0.20367 0 0.0689 0.13287 0.39965 0.29528 0.73493 0.48723 1.0058 0.56189 1.2957 0.61202 2.3764 0.052 1.122-0.06 1.8511-0.45486 2.9604-0.27838 0.78203-0.55278 1.2595-0.94907 1.6515-0.17389 0.17202-0.4807 0.50995-0.6818 0.75095-0.7425 0.88982-1.9679 1.9302-2.2736 1.9302-0.18612 0-0.13641-0.11559 0.27227-0.63321 0.38692-0.49004 0.38692-0.49004 0.2984-0.914-0.0681-0.32618-0.0594-0.57176 0.0377-1.0647 0.14898-0.75642 0.15753-1.0302 0.0383-1.2275-0.13149-0.21752-0.27253-0.17807-0.21928 0.0613 0.14506 0.65212 0.15537 0.92103 0.0353 0.92103-0.12535 0-0.25679-0.20822-0.67101-1.0629-0.49758-1.0267-0.50608-2.8874-0.02-4.3789 0.40168-1.2325 0.87119-1.9901 1.3813-2.2288l0.3034-0.14201-0.45109-3e-3c-0.7181-5e-3 -1.2954-0.29-2.1153-1.0432-0.38401-0.35277-0.75659-0.75035-0.82796-0.88351-0.29447-0.54941-0.0731-1.049 0.83978-1.8949 0.35415-0.32821 0.64392-0.65168 0.64392-0.71883 0-0.16592-0.47419-0.85429-0.81075-1.177-0.37329-0.35787-0.54854-0.68914-0.54495-1.0301 4e-3 -0.40484 0.12308-0.55402 0.93377-1.1724 0.39498-0.30131 0.73086-0.60632 0.74642-0.67782 0.0155-0.0715-0.12224-0.29004-0.3062-0.48567-0.18395-0.19563-0.39538-0.45719-0.46984-0.58124-0.0744-0.12406-0.23873-0.31015-0.36505-0.41353-0.39919-0.3267-0.54175-0.60559-0.53807-1.0526 5e-3 -0.59673 0.14107-0.8591 0.8368-1.6127 0.62033-0.67189 0.62033-0.67189 0.56441-1.0451-0.0307-0.20526-0.10707-0.46094-0.16959-0.5682-0.0625-0.10725-0.21794-0.4995-0.34537-0.87167s-0.32256-0.81498-0.43361-0.98402c-0.32507-0.49479-0.28041-0.90126 0.15899-1.4471 0.7515-0.93362 1.2469-1.4861 1.5319-1.7084 0.42795-0.33389 0.48325-0.78058 0.20065-1.6206-0.11667-0.34681-0.31511-0.98583-0.44096-1.42-0.12585-0.43419-0.30487-1.0304-0.39782-1.325-0.12555-0.39781-0.16087-0.69749-0.13737-1.1654 0.031-0.61603 0.0412-0.64225 0.46642-1.1938 0.96936-1.2572 1.4697-2.5546 1.8555-4.8119 0.14597-0.85386 0.20893-1.1614 0.46183-2.2556l-0.0629-2.9653c-0.51904-0.36222-3.5016-1.8658-5.1645-2.6036-0.61073-0.27096-1.8495-0.8605-2.7529-1.3101-0.90335-0.44959-2.1851-1.0585-2.8483-1.353-0.92644-0.41151-1.4174-0.68877-2.1192-1.1967-0.50238-0.36358-1.2953-0.91513-1.7621-1.2256-0.69179-0.46022-1.0337-0.76599-1.8494-1.6541-0.55042-0.59922-1.066-1.2164-1.1458-1.3714-0.16745-0.32549-0.20185-0.33793-0.35079-0.12677-0.41327 0.58589-0.9842 2.2351-1.4039 4.0552-0.51911 2.2514-0.48521 2.0016-0.70409 5.1878-0.20387 2.9678 0.21918 5.1834 0.21918 5.1834 0.18898 2.6443 0.91431 2.9931 2.4396 4.9063 0.1978 0.24812 0.53067 0.6717 0.73971 0.9413l0.38008 0.49018 0.0925 1.3519c0.0509 0.74353 0.0795 1.8255 0.0635 2.4045-0.029 1.0526-0.029 1.0526-0.34981 1.521-0.17644 0.25764-0.55826 0.72668-0.84848 1.0423-0.29022 0.31566-0.61355 0.7078-0.71852 0.87144-0.22796 0.35537-0.20316 0.41396 0.43548 1.029 0.60185 0.57963 0.98632 1.0902 1.1328 1.5044 0.19503 0.55149 0.27811 1.7201 0.14764 2.0767-0.0605 0.16541-0.18905 0.53758-0.28562 0.82704-0.0966 0.28947-0.29059 0.67856-0.43115 0.86464-0.14056 0.18609-0.25573 0.36597-0.25593 0.39974-1.7e-4 0.0338 0.0907 0.16911 0.20191 0.30075 0.93612 1.1076 0.78926 2.2271-0.49669 3.7862-0.25355 0.3074-0.44115 0.60473-0.41687 0.66074 0.0243 0.056 0.15562 0.14272 0.29188 0.19269 0.38045 0.13953 0.8193 0.62073 0.96659 1.0599 0.32629 0.97277 0.0653 1.777-1.0107 3.1139-0.0553 0.0687-0.0388 0.14459 0.0517 0.23705 0.34603 0.35374 0.42344 1.1559 0.17274 1.7901-0.17212 0.43539-0.58335 1.021-1.1475 1.6342-0.38632 0.41991-0.48812 0.67526-0.3084 0.7736 0.17448 0.0955 0.52914 0.6709 0.72045 1.1689 0.12944 0.33694 0.21362 0.7812 0.25057 1.3224 0.0544 0.79681 0.0324 0.97875-0.23964 1.9804-0.073 0.26879-0.17514 0.70862-0.22697 0.97741-0.0982 0.50937-0.60151 1.5055-1.1522 2.2806-0.23554 0.33148-0.3499 0.42969-0.46844 0.40224-0.1174-0.0272-0.22437 0.0609-0.42544 0.35019l-0.26861 0.38652 0.33024 0.56081c0.18163 0.30845 0.34298 0.58789 0.35854 0.62098 0.05753 0.12228-0.20853 0.0552-0.37875-0.0956zm0.68622-9.2854c0.13136-0.17749 0.132-0.20812 0.0078-0.37592-0.12711-0.17175-0.18241-0.18269-0.92375-0.18269-0.79956 0-1.1392 0.0946-1.0633 0.29616 0.06288 0.16701 0.93656 0.44947 1.4002 0.45268 0.37653 3e-3 0.45558-0.0234 0.57907-0.19023zm20.243-1.3013c0.0625-0.0351 0.10068-0.14312 0.0849-0.24014-0.0224-0.13812-0.10237-0.18997-0.36834-0.23893-0.18682-0.0344-0.47145-0.0527-0.63251-0.0407l-0.29284 0.0219 0.28041 0.28194c0.28458 0.28616 0.65124 0.37143 0.92836 0.21591z" fill="#8a6541" stroke-width=".079904"/>
  <ellipse cx="57.661" cy="152.27" rx="1.824" ry=".675" fill="#fff"/>
  <ellipse cx="78.08" cy="151.33" rx="1.3685" ry=".675" fill="#fff"/>
  <g fill="#fceaea" stroke="#ef853d">
   <path d="m145.21 211.71c1.3788 13.6-4.6463 38.315-13.867 42.43-3.8104 1.7315-6.1134 1.8268-9.3631 0-8.1292-7.4434-14.844-23.147-12.903-40.173 2.8861-7.056 27.2-9.0901 36.133-2.2572z" stroke-width=".096539px"/>
   <ellipse transform="matrix(-.95296 .30309 -.39054 -.92059 0 0)" cx="-12.548" cy="-227.94" rx="3.719" ry="17.933" stroke-width=".11723"/>
   <ellipse transform="matrix(-.99997 -.0078157 -.085366 -.99635 0 0)" cx="-129.27" cy="-228.5" rx="3.719" ry="17.933" stroke-width=".11723"/>
  </g>
  <g>
   <path d="m136.54 215.38c-2.854-2.3048-4.7859 0.89817-3.5601 2.7951l3.5307 4.0014 3.7955-4.2074c1.0396-1.6575-0.83364-5.0508-3.7661-2.5892z" fill="#ef853d"/>
   <path d="m136.68 208.58c-6.4218 1.666-11.208 1.3328-17.63 0.3635-4.0351-1.289-7.695-3.7532-8.0879-8.9966 0.6967-13.389 13.116-14.782 15.994-15.358 14.54 0.12117 17.175 10.42 16.903 15.085 0.0606 3.3321-1.1511 6.1189-7.1791 8.9057z" fill="#fceaea" stroke="#ef853d" stroke-width=".074022px"/>
   <ellipse transform="matrix(.96194 .27324 -.40921 .91244 0 0)" cx="192.7" cy="159.22" rx="5.4064" ry="3.0685" fill="#ef853d"/>
   <ellipse transform="matrix(-.96194 .27324 .40921 .91244 0 0)" cx="-42.746" cy="229.73" rx="5.4064" ry="3.0685" fill="#ef853d"/>
  </g>
 </g>
 <g stroke="#ef853d">
  <path d="m79.547 110.55c-3.5564-1.8146-8.4988-2.1642-12.16-0.95626l-3.3706-5.4572c0.53811-2.6811 19.704-0.97722 19.713 1.3075z" fill="#fff" stroke-width=".32767px"/>
  <path d="m64.26 104.44c0.88951-1.8383 18.329-0.7673 19.04 1.4861" fill="none" stroke-width=".32767px"/>
  <rect transform="rotate(5.714)" x="83.659" y="96.505" width=".8895" height="3.6025" fill="#ef853d" stroke-width=".32767"/>
  <rect transform="rotate(94.356)" x="99.798" y="-83.638" width=".8895" height="3.6025" fill="#ef853d" stroke-width=".32767"/>
 </g>
</svg>
