<?xml version="1.0" encoding="UTF-8" standalone="no"?>
<svg
   width="640"
   height="480"
   version="1.1"
   id="svg1705"
   sodipodi:docname="глаза_ухмыляющийся.svg"
   inkscape:version="1.1.1 (3bf5ae0d25, 2021-09-20)"
   xmlns:inkscape="http://www.inkscape.org/namespaces/inkscape"
   xmlns:sodipodi="http://sodipodi.sourceforge.net/DTD/sodipodi-0.dtd"
   xmlns="http://www.w3.org/2000/svg"
   xmlns:svg="http://www.w3.org/2000/svg">
  <sodipodi:namedview
     id="namedview1707"
     pagecolor="#ffffff"
     bordercolor="#666666"
     borderopacity="1.0"
     inkscape:pageshadow="2"
     inkscape:pageopacity="0.0"
     inkscape:pagecheckerboard="0"
     showgrid="false"
     inkscape:zoom="0.38301617"
     inkscape:cx="65.271395"
     inkscape:cy="67.882251"
     inkscape:window-width="1366"
     inkscape:window-height="706"
     inkscape:window-x="-8"
     inkscape:window-y="-8"
     inkscape:window-maximized="1"
     inkscape:current-layer="svg1705" />
  <!-- Created with SVG-edit - https://github.com/SVG-Edit/svgedit-->
  <defs
     id="defs1682">
    <filter
       height="2.2151899"
       id="svg_54_blur"
       width="1.6530612"
       x="-0.32653062"
       y="-0.60759494">
      <feGaussianBlur
         in="SourceGraphic"
         stdDeviation="20"
         id="feGaussianBlur1679" />
    </filter>
  </defs>
  <circle
     cx="181"
     cy="169.63637"
     fill="#ffffff"
     id="svg_7"
     opacity="0.5"
     stroke="#000000"
     stroke-width="2"
     r="0" />
  <path
     d="m 847.51658,208.29431 c 3.12417,-20.06792 13.35841,-81.90219 5.93759,-115.952033 -7.42081,-34.049845 -59.60395,-32.817724 -58.19592,-32.774914 1.40804,0.04281 -39.29672,-5.422795 -55.59856,20.859078 -16.30183,26.281879 -1.66681,116.527219 -0.96837,124.559169 43.40308,-4.29727 53.43695,-5.76913 108.82526,3.3087 z"
     fill="#ffffff"
     id="svg_50"
     stroke="#000000"
     stroke-width="2" />
  <path
     d="m 266.72727,245.18182 c 0,1 -95,0 -113.72727,2.81818 -15.72727,-105.18182 -5.27273,-134.81818 -3,-141 17.27273,2.81818 115.72727,17.18182 115.72727,18.18182 7,19 5,108 1,120 z"
     fill="#ffffff"
     id="svg_56"
     stroke="#000000"
     stroke-width="2" />
  <circle
     cx="223"
     cy="200.65907"
     fill="#000000"
     id="svg_8"
     stroke="#000000"
     stroke-width="2"
     r="32" />
  <path
     d="m 356.72727,243.18182 c 3,-1 100,3 109,0 21,-97 9,-136 5.27273,-136.18182 -6.72727,2.81818 -117.27273,22.18182 -118,22 -6.72727,23.81818 -0.27273,109.18182 3.72727,114.18182 z"
     fill="#ffffff"
     id="svg_57"
     stroke="#000000"
     stroke-width="2" />
  <circle
     cx="396.72726"
     cy="197.65909"
     fill="#000000"
     id="svg_48"
     stroke="#000000"
     stroke-width="2"
     r="32" />
</svg>
