<?xml version="1.0" encoding="UTF-8" standalone="no"?>
<!-- Creator: CorelDRAW 2020 (64-Bit) -->

<svg
   xml:space="preserve"
   width="210mm"
   height="297mm"
   version="1.1"
   style="shape-rendering:geometricPrecision; text-rendering:geometricPrecision; image-rendering:optimizeQuality; fill-rule:evenodd; clip-rule:evenodd"
   viewBox="0 0 21000 29700"
   id="svg1474"
   sodipodi:docname="глаза_улыбающийся2.svg"
   inkscape:version="1.1.1 (3bf5ae0d25, 2021-09-20)"
   xmlns:inkscape="http://www.inkscape.org/namespaces/inkscape"
   xmlns:sodipodi="http://sodipodi.sourceforge.net/DTD/sodipodi-0.dtd"
   xmlns="http://www.w3.org/2000/svg"
   xmlns:svg="http://www.w3.org/2000/svg"><sodipodi:namedview
   id="namedview1476"
   pagecolor="#ffffff"
   bordercolor="#666666"
   borderopacity="1.0"
   inkscape:pageshadow="2"
   inkscape:pageopacity="0.0"
   inkscape:pagecheckerboard="0"
   inkscape:document-units="mm"
   showgrid="false"
   inkscape:zoom="0.46324355"
   inkscape:cx="397.19927"
   inkscape:cy="561.25984"
   inkscape:window-width="1366"
   inkscape:window-height="706"
   inkscape:window-x="-8"
   inkscape:window-y="-8"
   inkscape:window-maximized="1"
   inkscape:current-layer="Слой_x0020_1" />
 <defs
   id="defs1463">
  <style
   type="text/css"
   id="style1461">
   <![CDATA[
    .str2 {stroke:black;stroke-width:52.92;stroke-miterlimit:22.9256;stroke-opacity:0.501961}
    .str0 {stroke:black;stroke-miterlimit:22.9256}
    .str1 {stroke:black;stroke-width:52.92;stroke-miterlimit:22.9256}
    .fil3 {fill:black;fill-rule:nonzero}
    .fil0 {fill:yellow;fill-rule:nonzero}
    .fil1 {fill:white;fill-rule:nonzero}
    .fil2 {fill:white;fill-rule:nonzero;fill-opacity:0.501961}
   ]]>
  </style>
 </defs>
 <g
   id="Слой_x0020_1"
   inkscape:label="Слой 1">
  <metadata
   id="CorelCorpID_0Corel-Layer" />
  
  <path
   id="svg_44"
   class="fil1 str1"
   d="M14215.33 15031.44c97.22,-528.49 358.34,-2318.65 186.82,-3224.6 -171.52,-905.96 -1552.57,-911.3 -1515.36,-909.14 37.21,2.16 -1035.39,-171.99 -1485.65,511.27 -450.26,683.26 -144.09,3344.89 -131.46,3557.82 1154.51,-134.91 1416.72,-352.88 2945.65,64.65z" />
  <path
   id="svg_43"
   class="fil1 str1"
   d="M9281.94 14971.15c62.63,-533.7 206.76,-2337.04 -23.33,-3229.92 -230.08,-892.88 -1608.56,-808.38 -1571.29,-808.65 37.27,-0.27 -1044.39,-104.28 -1449.25,606.83 -404.86,711.1 73.79,3347.17 100.25,3558.84 1143.29,-209.72 1390.76,-444.29 2943.62,-127.09l0 -0.01z" />
  <path
   id="svg_7"
   class="fil2 str2"
   d="M6822.29 12988.3c0,0 0,0 0,0 0,0 0,0 0,0 0,0 0,0 0,0 0,0 0,0 0,0z" />
  
  <path
   id="svg_45"
   class="fil3 str0"
   d="M7846.95 13452.52c0,0 -661.46,0 -812.99,788.94 -72.16,339.15 177.99,692.73 158.75,687.92 721.59,-137.1 1315.7,-48.11 1315.7,-48.11 317.5,-423.33 238.13,-820.21 238.13,-820.21 -52.92,-291.04 -317.5,-582.08 -899.58,-608.54l-0.01 0z" />
  <path
   id="svg_46"
   class="fil3 str0"
   d="M12727.05 13401.98c0,0 -661.46,0 -812.99,788.94 -72.16,339.15 177.99,692.73 158.75,687.92 721.59,-137.1 1315.7,-48.11 1315.7,-48.11 317.5,-423.33 238.13,-820.21 238.13,-820.21 -52.92,-291.04 -317.5,-582.08 -899.58,-608.54l-0.01 0z" />
 </g>
</svg>
