<?xml version="1.0" encoding="UTF-8" standalone="no"?>
<svg
   width="640"
   height="480"
   version="1.1"
   id="svg1426"
   sodipodi:docname="глаза_нейтральный1.svg"
   inkscape:version="1.1.1 (3bf5ae0d25, 2021-09-20)"
   xmlns:inkscape="http://www.inkscape.org/namespaces/inkscape"
   xmlns:sodipodi="http://sodipodi.sourceforge.net/DTD/sodipodi-0.dtd"
   xmlns="http://www.w3.org/2000/svg"
   xmlns:svg="http://www.w3.org/2000/svg">
  <defs
     id="defs1430" />
  <sodipodi:namedview
     id="namedview1428"
     pagecolor="#ffffff"
     bordercolor="#666666"
     borderopacity="1.0"
     inkscape:pageshadow="2"
     inkscape:pageopacity="0.0"
     inkscape:pagecheckerboard="0"
     showgrid="false"
     inkscape:zoom="0.54166667"
     inkscape:cx="288.92308"
     inkscape:cy="260.30769"
     inkscape:window-width="1366"
     inkscape:window-height="706"
     inkscape:window-x="-8"
     inkscape:window-y="-8"
     inkscape:window-maximized="1"
     inkscape:current-layer="svg1426" />
  <!-- Created with SVG-edit - https://github.com/SVG-Edit/svgedit-->
  <path
     d="m 258.91016,239.17589 c 0,-4.22608 8.45215,-97.19973 0,-131.00834 -8.45215,-33.808598 -60.57375,-30.991215 -59.16506,-30.991215 1.4087,0 -39.44337,-4.226075 -54.93898,22.539068 -15.49561,26.765147 2.81739,142.277867 2.81739,142.277867 0,0 74.1911,0.46956 111.28665,-2.81738 z"
     fill="#ffffff"
     id="svg_2"
     stroke="#000000"
     stroke-width="2" />
  <path
     d="m 479.42948,242.01974 c 0.20102,-4.22128 13.0659,-96.68768 6.23143,-130.86004 -6.83447,-34.172366 -59.03109,-33.837343 -57.62398,-33.770338 1.4071,0.067 -39.19771,-6.097421 -55.94887,19.900377 -16.75116,25.997791 -3.95328,142.250841 -3.95328,142.250841 0,0 74.0848,3.99794 111.2947,2.47916 z"
     fill="#ffffff"
     id="svg_5"
     stroke="#000000"
     stroke-width="2" />
  <circle
     cx="209"
     cy="208.13637"
     fill="#000000"
     id="svg_6"
     stroke="#000000"
     stroke-width="2"
     r="32" />
  <circle
     cx="181"
     cy="169.63637"
     fill="#ffffff"
     id="svg_7"
     opacity="0.5"
     stroke="#000000"
     stroke-width="2"
     r="0" />
  <circle
     cx="424"
     cy="208.13635"
     fill="#000000"
     id="svg_8"
     stroke="#000000"
     stroke-width="2"
     r="32" />
</svg>
