<?xml version="1.0" encoding="UTF-8" standalone="no"?>
<!-- Creator: CorelDRAW 2020 (64-Bit) -->

<svg
   xml:space="preserve"
   width="210mm"
   height="297mm"
   version="1.1"
   style="shape-rendering:geometricPrecision; text-rendering:geometricPrecision; image-rendering:optimizeQuality; fill-rule:evenodd; clip-rule:evenodd"
   viewBox="0 0 21000 29700"
   id="svg59"
   sodipodi:docname="глаза_смущенный1.svg"
   inkscape:version="1.1.1 (3bf5ae0d25, 2021-09-20)"
   xmlns:inkscape="http://www.inkscape.org/namespaces/inkscape"
   xmlns:sodipodi="http://sodipodi.sourceforge.net/DTD/sodipodi-0.dtd"
   xmlns:xlink="http://www.w3.org/1999/xlink"
   xmlns="http://www.w3.org/2000/svg"
   xmlns:svg="http://www.w3.org/2000/svg"><sodipodi:namedview
   id="namedview61"
   pagecolor="#ffffff"
   bordercolor="#666666"
   borderopacity="1.0"
   inkscape:pageshadow="2"
   inkscape:pageopacity="0.0"
   inkscape:pagecheckerboard="0"
   inkscape:document-units="mm"
   showgrid="false"
   inkscape:zoom="0.44364478"
   inkscape:cx="396.71378"
   inkscape:cy="561.25984"
   inkscape:window-width="1366"
   inkscape:window-height="706"
   inkscape:window-x="-8"
   inkscape:window-y="-8"
   inkscape:window-maximized="1"
   inkscape:current-layer="Слой_x0020_1" />
 <defs
   id="defs44">
  <style
   type="text/css"
   id="style36">
   <![CDATA[
    .str1 {stroke:black;stroke-width:52.92;stroke-miterlimit:22.9256;stroke-opacity:0.501961}
    .str0 {stroke:black;stroke-miterlimit:22.9256}
    .str2 {stroke:black;stroke-width:52.92;stroke-miterlimit:22.9256}
    .fil2 {fill:black;fill-rule:nonzero}
    .fil0 {fill:yellow;fill-rule:nonzero}
    .fil4 {fill:white;fill-rule:nonzero}
    .fil1 {fill:white;fill-rule:nonzero;fill-opacity:0.501961}
    .fil5 {fill:url(#id0)}
    .fil3 {fill:url(#id1)}
   ]]>
  </style>
  <radialGradient
   id="id0"
   gradientUnits="userSpaceOnUse"
   gradientTransform="matrix(0.996116 -2.81476E-05 1.10731E-05 0.463823 26 8060)"
   cx="6615.47"
   cy="15032.45"
   r="1421.08"
   fx="6615.47"
   fy="15032.45">
   <stop
   offset="0"
   style="stop-opacity:1; stop-color:#F5B2B6"
   id="stop38" />
   <stop
   offset="1"
   style="stop-opacity:1; stop-color:yellow"
   id="stop40" />
  </radialGradient>
  <radialGradient
   id="id1"
   gradientUnits="userSpaceOnUse"
   gradientTransform="matrix(1.03452 0.0109108 -0.0053626 0.508009 -396 7222)"
   xlink:href="#id0"
   cx="13810"
   cy="14986.11"
   r="1453.76"
   fx="13810"
   fy="14986.11">
  </radialGradient>
 </defs>
 <g
   id="Слой_x0020_1"
   inkscape:label="Слой 1">
  <metadata
   id="CorelCorpID_0Corel-Layer" />
  
  <path
   id="svg_7"
   class="fil1 str1"
   d="M6822.29 12988.3c0,0 0,0 0,0 0,0 0,0 0,0 0,0 0,0 0,0 0,0 0,0 0,0z" />
  
  <ellipse
   class="fil3"
   cx="13810"
   cy="14986.11"
   rx="2202.66"
   ry="1081.57"
   id="ellipse50" />
  <path
   id="svg_50"
   class="fil4 str2"
   d="M14138.46 14990.08c82.66,-530.96 353.44,-2167 157.1,-3067.9 -196.34,-900.9 -1577.02,-868.3 -1539.77,-867.17 37.25,1.13 -1039.73,-143.48 -1471.05,551.9 -431.32,695.37 -44.1,3083.12 -25.62,3295.63 1148.37,-113.7 1413.85,-152.64 2879.34,87.54z" />
  <circle
   id="svg_48"
   class="fil2 str2"
   cx="12715.28"
   cy="13690.04"
   r="846.66" />
  <ellipse
   class="fil5"
   cx="6615.47"
   cy="15032.45"
   rx="2063.76"
   ry="806.98"
   id="ellipse54" />
  <path
   id="svg_43"
   class="fil4 str2"
   d="M9164.09 14839.32c62.63,-533.7 271.7,-2178.75 41.61,-3071.64 -230.08,-892.88 -1608.56,-808.38 -1571.29,-808.65 37.27,-0.27 -1044.39,-104.28 -1449.25,606.83 -404.86,711.1 71.88,3082.59 98.34,3294.26 1143.29,-156.8 1407.11,-205.7 2880.59,-20.8z" />
  <circle
   id="svg_8"
   class="fil2 str2"
   cx="7854.17"
   cy="13610.67"
   r="846.66" />
 </g>
</svg>
