<?xml version="1.0" encoding="UTF-8" standalone="no"?>
<!-- Creator: CorelDRAW 2020 (64-Bit) -->

<svg
   xml:space="preserve"
   width="210mm"
   height="297mm"
   version="1.1"
   style="shape-rendering:geometricPrecision; text-rendering:geometricPrecision; image-rendering:optimizeQuality; fill-rule:evenodd; clip-rule:evenodd"
   viewBox="0 0 21000 29700"
   id="svg354"
   sodipodi:docname="глаза_удивленный.svg"
   inkscape:version="1.1.1 (3bf5ae0d25, 2021-09-20)"
   xmlns:inkscape="http://www.inkscape.org/namespaces/inkscape"
   xmlns:sodipodi="http://sodipodi.sourceforge.net/DTD/sodipodi-0.dtd"
   xmlns="http://www.w3.org/2000/svg"
   xmlns:svg="http://www.w3.org/2000/svg"><sodipodi:namedview
   id="namedview356"
   pagecolor="#ffffff"
   bordercolor="#666666"
   borderopacity="1.0"
   inkscape:pageshadow="2"
   inkscape:pageopacity="0.0"
   inkscape:pagecheckerboard="0"
   inkscape:document-units="mm"
   showgrid="false"
   inkscape:zoom="0.46324355"
   inkscape:cx="397.19927"
   inkscape:cy="561.25984"
   inkscape:window-width="1366"
   inkscape:window-height="706"
   inkscape:window-x="-8"
   inkscape:window-y="-8"
   inkscape:window-maximized="1"
   inkscape:current-layer="Слой_x0020_1" />
 <defs
   id="defs341">
  <style
   type="text/css"
   id="style339">
   <![CDATA[
    .str2 {stroke:black;stroke-width:52.92;stroke-miterlimit:22.9256;stroke-opacity:0.501961}
    .str0 {stroke:black;stroke-miterlimit:22.9256}
    .str1 {stroke:black;stroke-width:52.92;stroke-miterlimit:22.9256}
    .fil2 {fill:black;fill-rule:nonzero}
    .fil0 {fill:yellow;fill-rule:nonzero}
    .fil1 {fill:white;fill-rule:nonzero}
    .fil3 {fill:white;fill-rule:nonzero;fill-opacity:0.501961}
   ]]>
  </style>
 </defs>
 <g
   id="Слой_x0020_1"
   inkscape:label="Слой 1">
  <metadata
   id="CorelCorpID_0Corel-Layer" />
  
  <path
   id="svg_2"
   class="fil1 str1"
   d="M8830.75 14907.57c0,-111.81 223.63,-2571.74 0,-3466.26 -223.63,-894.52 -1602.68,-819.98 -1565.41,-819.98 37.27,0 -1043.61,-111.81 -1453.59,596.35 -409.99,708.16 74.54,3764.44 74.54,3764.44 0,0 1962.97,12.42 2944.46,-74.54l0 -0.01z" />
  <path
   id="svg_5"
   class="fil1 str1"
   d="M14718.24 14903.44c5.32,-111.69 345.7,-2558.2 164.87,-3462.34 -180.83,-904.14 -1561.86,-895.28 -1524.63,-893.51 37.23,1.77 -1037.11,-161.33 -1480.31,526.53 -443.21,687.86 -104.6,3763.72 -104.6,3763.72 0,0 1960.16,105.78 2944.67,65.59l0 0.01z" />
  <circle
   id="svg_6"
   class="fil2 str1"
   cx="7510.21"
   cy="13107.36"
   r="846.66" />
  <path
   id="svg_7"
   class="fil3 str2"
   d="M6822.29 12988.3c0,0 0,0 0,0 0,0 0,0 0,0 0,0 0,0 0,0 0,0 0,0 0,0z" />
  <circle
   id="svg_8"
   class="fil2 str1"
   cx="13198.75"
   cy="13001.52"
   r="846.66" />
  <path
   id="svg_12"
   class="fil2 str1"
   d="M-6379.82 15422.01c0,0 1733.57,-487.54 2550.12,-487.1 785.6,-44.32 2577.02,178.14 2552.23,196.49 -1953.1,-127.99 -5102.34,290.61 -5102.34,290.61l-0.01 0z" />
  <path
   id="svg_13"
   class="fil2 str1"
   d="M-9285.5 13257.07c-32.99,23.09 3662,92.35 5344.54,46.18 -1550.58,-138.53 -3266.11,-161.62 -5344.54,-46.18z" />
  
 </g>
</svg>
