<?xml version="1.0" encoding="UTF-8" standalone="no"?>
<svg
   id="svgcontent"
   x="2713.8"
   y="1136.5"
   width="640"
   height="480"
   overflow="visible"
   version="1.1"
   viewBox="0 0 640 480"
   sodipodi:docname="нейтр_радостный.svg"
   inkscape:version="1.2 (dc2aedaf03, 2022-05-15)"
   xmlns:inkscape="http://www.inkscape.org/namespaces/inkscape"
   xmlns:sodipodi="http://sodipodi.sourceforge.net/DTD/sodipodi-0.dtd"
   xmlns="http://www.w3.org/2000/svg"
   xmlns:svg="http://www.w3.org/2000/svg">
  <defs
     id="defs1537" />
  <sodipodi:namedview
     id="namedview1535"
     pagecolor="#ffffff"
     bordercolor="#999999"
     borderopacity="1"
     inkscape:pageshadow="0"
     inkscape:pageopacity="0"
     inkscape:pagecheckerboard="0"
     showgrid="false"
     inkscape:zoom="1.4979167"
     inkscape:cx="320.44506"
     inkscape:cy="240.66759"
     inkscape:window-width="1920"
     inkscape:window-height="991"
     inkscape:window-x="-9"
     inkscape:window-y="-9"
     inkscape:window-maximized="1"
     inkscape:current-layer="g1530"
     inkscape:showpageshadow="0"
     inkscape:deskcolor="#d1d1d1" />
  <!-- Created with SVG-edit - https://github.com/SVG-Edit/svgedit-->
  <g
     class="layer"
     pointer-events="inherit"
     id="g1532">
    <title
       id="title1518">Layer 1</title>
    <g
       stroke="#000"
       stroke-width="2"
       id="g1530">
      <ellipse
         cx="181"
         cy="169.64"
         rx="0"
         ry="0"
         fill="#fff"
         opacity=".5"
         id="ellipse1520" />
      <path
         d="m 166.73,241.09 42.909,0.977 36.939,-1.054 32.422,-4.105 7.061,-64.847 0.064,-39.528 -4.249,-22.84 L 276,94.9082 264.967,86.9351 255.375,83.2832 240,82.9082 l -24.07777,0.449056 -23.04578,5.699722 -20.92113,12.928142 -9.4771,12.17518 -3.75122,23.9297 -0.297,31.563 2.422,32.687 5.875,38.75 0.003,0"
         fill="#ffffff"
         id="path1522"
         sodipodi:nodetypes="cccccccccccccccccccc"
         style="stroke:#000000">
        <animate
           attributeName="d"
           to="m 166.36101,242.6038 41.15956,-8.06176 40.72945,-1.054 30.38099,4.93376 7.061,-64.847 0.064,-39.528 -4.249,-22.84 -5.876,-14.784799 -11.033,-7.9731 -9.592,-3.6519 -15.375,-0.375 -24.07777,0.44906 -23.04578,5.69972 -20.92113,12.928139 -9.4771,12.17518 -3.75122,23.9297 -0.297,31.563 2.422,32.687 5.875,38.75 0.003,0"
           dur="3s"
           fill="freeze" />
      </path>
      <ellipse
         cx="233"
         cy="201.14"
         rx="32"
         ry="32"
         id="ellipse1524" />
      <path
         d="m 472.73,241.16 -44.841,0.102 -64.889,-2.27 -6.284,-69.296 0.186,-41.826 2.375,-16.875 4.45,-11.9634 9.922,-8.9437 14.30209,-5.29827 20.46575,-2.302624 21.95995,-0.220604 25.66772,6.094467 18.24721,20.305881 L 481,125.704 l 2.198,17.823 -0.232,27.536 -3.282,33.718 -6.956,36.373 0.002,0.006"
         fill="none"
         id="path1526"
         sodipodi:nodetypes="ccccccccccccccccccc"
         style="stroke:#000000;fill:#ffffff">
        <animate
           attributeName="d"
           to="m 472.05454,240.9277 -54.17133,-9.22833 -55.55867,7.06033 -6.284,-69.296 0.186,-41.826 2.375,-16.875 4.45,-11.963396 9.922,-8.9437 14.30209,-5.29827 20.46575,-2.302624 21.95995,-0.220604 25.66772,6.094467 18.24721,20.305877 6.70828,17.03725 2.198,17.823 -0.232,27.536 -3.282,33.718 -6.956,36.373 0.002,0.006"
           dur="3s"
           fill="freeze" />
      </path>
      <ellipse
         cx="417"
         cy="202.14"
         rx="32"
         ry="32"
         id="ellipse1528" />
    </g>
  </g>
</svg>
